solid OpenSCAD_Model
  facet normal -1 0 0
    outer loop
      vertex 0 0 0
      vertex 0 9.1 5
      vertex 0 9.1 0
    endloop
  endfacet
  facet normal -1 -0 0
    outer loop
      vertex 0 9.1 5
      vertex 0 0 0
      vertex 0 0 5
    endloop
  endfacet
  facet normal -1 0 0
    outer loop
      vertex 0 61 0
      vertex 0 70 5
      vertex 0 70 0
    endloop
  endfacet
  facet normal -1 -0 0
    outer loop
      vertex 0 70 5
      vertex 0 61 0
      vertex 0 61 5
    endloop
  endfacet
  facet normal -1 0 0
    outer loop
      vertex 0 55 0
      vertex 0 46 3
      vertex 0 55 5
    endloop
  endfacet
  facet normal -1 0 0
    outer loop
      vertex 0 55 0
      vertex 0 24 3
      vertex 0 46 3
    endloop
  endfacet
  facet normal -1 0 0
    outer loop
      vertex 0 14.9 0
      vertex 0 24 3
      vertex 0 55 0
    endloop
  endfacet
  facet normal -1 0 0
    outer loop
      vertex 0 14.9 5
      vertex 0 24 3
      vertex 0 14.9 0
    endloop
  endfacet
  facet normal -1 0 0
    outer loop
      vertex 0 24 3
      vertex 0 14.9 5
      vertex 0 24 5
    endloop
  endfacet
  facet normal -1 -0 0
    outer loop
      vertex 0 55 5
      vertex 0 46 3
      vertex 0 46 5
    endloop
  endfacet
  facet normal 0 0 1
    outer loop
      vertex 21.3842 10.8958 5
      vertex 15 12 5
      vertex 16 5 5
    endloop
  endfacet
  facet normal 0 0 1
    outer loop
      vertex 13.5 14.5981 5
      vertex 16.9706 16.9706 5
      vertex 14.1068 19.4164 5
    endloop
  endfacet
  facet normal 0 0 1
    outer loop
      vertex 16.9706 16.9706 5
      vertex 13.5 14.5981 5
      vertex 15 12 5
    endloop
  endfacet
  facet normal 0 0 1
    outer loop
      vertex 10.5 14.5981 5
      vertex 14.1068 19.4164 5
      vertex 10.8958 21.3842 5
    endloop
  endfacet
  facet normal 0 0 1
    outer loop
      vertex 14.1068 19.4164 5
      vertex 10.5 14.5981 5
      vertex 13.5 14.5981 5
    endloop
  endfacet
  facet normal 0 0 1
    outer loop
      vertex 7.41641 22.8254 5
      vertex 10.5 14.5981 5
      vertex 10.8958 21.3842 5
    endloop
  endfacet
  facet normal 0 0 1
    outer loop
      vertex 10.5 14.5981 5
      vertex 0 14.9 5
      vertex 9 12 5
    endloop
  endfacet
  facet normal -0 0 1
    outer loop
      vertex 0 14.9 5
      vertex 10.5 14.5981 5
      vertex 7.41641 22.8254 5
    endloop
  endfacet
  facet normal -0 0 1
    outer loop
      vertex 16 5 5
      vertex 23.7045 3.75443 5
      vertex 22.8254 7.41641 5
    endloop
  endfacet
  facet normal 0 0 1
    outer loop
      vertex 16 5 5
      vertex 22.8254 7.41641 5
      vertex 21.3842 10.8958 5
    endloop
  endfacet
  facet normal -0 0 1
    outer loop
      vertex 15 12 5
      vertex 21.3842 10.8958 5
      vertex 19.4164 14.1068 5
    endloop
  endfacet
  facet normal 0 0 1
    outer loop
      vertex 15 12 5
      vertex 19.4164 14.1068 5
      vertex 16.9706 16.9706 5
    endloop
  endfacet
  facet normal 0 0 1
    outer loop
      vertex 15 0 5
      vertex 23.7045 3.75443 5
      vertex 16 5 5
    endloop
  endfacet
  facet normal 0 0 1
    outer loop
      vertex 23.7045 3.75443 5
      vertex 15 0 5
      vertex 24 0 5
    endloop
  endfacet
  facet normal -0 0 1
    outer loop
      vertex 13.5 9.40192 5
      vertex 16 5 5
      vertex 15 12 5
    endloop
  endfacet
  facet normal -0 0 1
    outer loop
      vertex 10.5 9.40192 5
      vertex 16 5 5
      vertex 13.5 9.40192 5
    endloop
  endfacet
  facet normal 0 0 1
    outer loop
      vertex 10.5 9.40192 5
      vertex 8 5 5
      vertex 16 5 5
    endloop
  endfacet
  facet normal 0 0 1
    outer loop
      vertex 8 5 5
      vertex 10.5 9.40192 5
      vertex 9 12 5
    endloop
  endfacet
  facet normal 0 0 1
    outer loop
      vertex 0 14.9 5
      vertex 7.41641 22.8254 5
      vertex 3.75443 23.7045 5
    endloop
  endfacet
  facet normal 0 0 1
    outer loop
      vertex 0 9.1 5
      vertex 9 12 5
      vertex 0 14.9 5
    endloop
  endfacet
  facet normal 0 0 1
    outer loop
      vertex 0 14.9 5
      vertex 3.75443 23.7045 5
      vertex 0 24 5
    endloop
  endfacet
  facet normal 0 0 1
    outer loop
      vertex 9 12 5
      vertex 0 9.1 5
      vertex 8 5 5
    endloop
  endfacet
  facet normal 0 0 1
    outer loop
      vertex 0 0 5
      vertex 8 5 5
      vertex 0 9.1 5
    endloop
  endfacet
  facet normal 0 0 1
    outer loop
      vertex 8 5 5
      vertex 0 0 5
      vertex 9 0 5
    endloop
  endfacet
  facet normal 0 0 1
    outer loop
      vertex -5 15.9 5
      vertex 0 9.1 5
      vertex 0 14.9 5
    endloop
  endfacet
  facet normal 0 0 1
    outer loop
      vertex 0 9.1 5
      vertex -5 15.9 5
      vertex -5 8.1 5
    endloop
  endfacet
  facet normal -0 0 1
    outer loop
      vertex 56.5 55.4019 5
      vertex 65 16 5
      vertex 59.5 55.4019 5
    endloop
  endfacet
  facet normal 0 0 1
    outer loop
      vertex 65 16 5
      vertex 59.5 14.5981 5
      vertex 61 12 5
    endloop
  endfacet
  facet normal 0 0 1
    outer loop
      vertex 56.5 14.5981 5
      vertex 65 16 5
      vertex 56.5 55.4019 5
    endloop
  endfacet
  facet normal 0 0 1
    outer loop
      vertex 65 16 5
      vertex 56.5 14.5981 5
      vertex 59.5 14.5981 5
    endloop
  endfacet
  facet normal 0 0 1
    outer loop
      vertex 27.0381 37.2148 5
      vertex 56.5 55.4019 5
      vertex 55 58 5
    endloop
  endfacet
  facet normal 0 0 1
    outer loop
      vertex 56.5 55.4019 5
      vertex 37.2148 27.0381 5
      vertex 56.5 14.5981 5
    endloop
  endfacet
  facet normal 0 0 1
    outer loop
      vertex 62 65 5
      vertex 59.5 60.5981 5
      vertex 61 58 5
    endloop
  endfacet
  facet normal 0 0 1
    outer loop
      vertex 62 65 5
      vertex 56.5 60.5981 5
      vertex 59.5 60.5981 5
    endloop
  endfacet
  facet normal 0 0 1
    outer loop
      vertex 15 58 5
      vertex 55 58 5
      vertex 54 65 5
    endloop
  endfacet
  facet normal 0 0 1
    outer loop
      vertex 56.5 60.5981 5
      vertex 54 65 5
      vertex 55 58 5
    endloop
  endfacet
  facet normal -0 0 1
    outer loop
      vertex 54 65 5
      vertex 56.5 60.5981 5
      vertex 62 65 5
    endloop
  endfacet
  facet normal -0 0 1
    outer loop
      vertex 62 65 5
      vertex 70 60.9 5
      vertex 70 70 5
    endloop
  endfacet
  facet normal 0 0 1
    outer loop
      vertex 61 58 5
      vertex 70 60.9 5
      vertex 62 65 5
    endloop
  endfacet
  facet normal -0 0 1
    outer loop
      vertex 59.5 55.4019 5
      vertex 70 55.1 5
      vertex 61 58 5
    endloop
  endfacet
  facet normal 0 0 1
    outer loop
      vertex 70 55.1 5
      vertex 65 16 5
      vertex 70 15 5
    endloop
  endfacet
  facet normal 0 0 1
    outer loop
      vertex 70 60.9 5
      vertex 61 58 5
      vertex 70 55.1 5
    endloop
  endfacet
  facet normal 0 -0 1
    outer loop
      vertex 62 65 5
      vertex 70 70 5
      vertex 61 70 5
    endloop
  endfacet
  facet normal -0 0 1
    outer loop
      vertex 70 60.9 5
      vertex 75 54.1 5
      vertex 75 61.9 5
    endloop
  endfacet
  facet normal 0 0 1
    outer loop
      vertex 75 54.1 5
      vertex 70 60.9 5
      vertex 70 55.1 5
    endloop
  endfacet
  facet normal -0 0 1
    outer loop
      vertex 65 8 5
      vertex 70 0 5
      vertex 70 9 5
    endloop
  endfacet
  facet normal 0 0 1
    outer loop
      vertex 70 55.1 5
      vertex 59.5 55.4019 5
      vertex 65 16 5
    endloop
  endfacet
  facet normal 0 0 1
    outer loop
      vertex 65 16 5
      vertex 61 12 5
      vertex 65 8 5
    endloop
  endfacet
  facet normal -0 0 1
    outer loop
      vertex 59.5 9.40192 5
      vertex 65 8 5
      vertex 61 12 5
    endloop
  endfacet
  facet normal 0 -0 1
    outer loop
      vertex 60.9 0 5
      vertex 65 8 5
      vertex 59.5 9.40192 5
    endloop
  endfacet
  facet normal 0 0 1
    outer loop
      vertex 65 8 5
      vertex 60.9 0 5
      vertex 70 0 5
    endloop
  endfacet
  facet normal -0 0 1
    outer loop
      vertex 56.5 9.40192 5
      vertex 60.9 0 5
      vertex 59.5 9.40192 5
    endloop
  endfacet
  facet normal 0 0 1
    outer loop
      vertex 55.1 0 5
      vertex 60.9 0 5
      vertex 56.5 9.40192 5
    endloop
  endfacet
  facet normal 0 0 1
    outer loop
      vertex 60.9 0 5
      vertex 55.1 0 5
      vertex 61.9 -5 5
    endloop
  endfacet
  facet normal 0 0 1
    outer loop
      vertex 61.9 -5 5
      vertex 55.1 0 5
      vertex 54.1 -5 5
    endloop
  endfacet
  facet normal 0 0 1
    outer loop
      vertex 14.9 70 5
      vertex 10.5 60.5981 5
      vertex 13.5 60.5981 5
    endloop
  endfacet
  facet normal 0 0 1
    outer loop
      vertex 9.1 70 5
      vertex 14.9 70 5
      vertex 15.9 75 5
    endloop
  endfacet
  facet normal 0 0 1
    outer loop
      vertex 14.9 70 5
      vertex 9.1 70 5
      vertex 10.5 60.5981 5
    endloop
  endfacet
  facet normal 0 -0 1
    outer loop
      vertex 9.1 70 5
      vertex 15.9 75 5
      vertex 8.1 75 5
    endloop
  endfacet
  facet normal 0 0 1
    outer loop
      vertex 55.1 0 5
      vertex 45.4337 7.19598 5
      vertex 46 0 5
    endloop
  endfacet
  facet normal 0 0 1
    outer loop
      vertex 55 12 5
      vertex 43.7486 14.2148 5
      vertex 45.4337 7.19598 5
    endloop
  endfacet
  facet normal -0 0 1
    outer loop
      vertex 14.9 70 5
      vertex 54 65 5
      vertex 55 70 5
    endloop
  endfacet
  facet normal 0 0 1
    outer loop
      vertex 56.5 14.5981 5
      vertex 43.7486 14.2148 5
      vertex 55 12 5
    endloop
  endfacet
  facet normal 0 -0 1
    outer loop
      vertex 43.7486 14.2148 5
      vertex 56.5 14.5981 5
      vertex 40.9863 20.8836 5
    endloop
  endfacet
  facet normal 0 0 1
    outer loop
      vertex 56.5 55.4019 5
      vertex 32.5269 32.5269 5
      vertex 37.2148 27.0381 5
    endloop
  endfacet
  facet normal 0 0 1
    outer loop
      vertex 56.5 55.4019 5
      vertex 27.0381 37.2148 5
      vertex 32.5269 32.5269 5
    endloop
  endfacet
  facet normal 0 0 1
    outer loop
      vertex 55 58 5
      vertex 15 58 5
      vertex 27.0381 37.2148 5
    endloop
  endfacet
  facet normal 0 0 1
    outer loop
      vertex 27.0381 37.2148 5
      vertex 15 58 5
      vertex 20.8836 40.9863 5
    endloop
  endfacet
  facet normal 0 0 1
    outer loop
      vertex 54 65 5
      vertex 14.9 70 5
      vertex 15 58 5
    endloop
  endfacet
  facet normal 0 0 1
    outer loop
      vertex 15 58 5
      vertex 14.9 70 5
      vertex 13.5 60.5981 5
    endloop
  endfacet
  facet normal -0 0 1
    outer loop
      vertex 13.5 55.4019 5
      vertex 20.8836 40.9863 5
      vertex 15 58 5
    endloop
  endfacet
  facet normal 0 0 1
    outer loop
      vertex 20.8836 40.9863 5
      vertex 13.5 55.4019 5
      vertex 14.2148 43.7486 5
    endloop
  endfacet
  facet normal -0 0 1
    outer loop
      vertex 10.5 55.4019 5
      vertex 14.2148 43.7486 5
      vertex 13.5 55.4019 5
    endloop
  endfacet
  facet normal 0 0 1
    outer loop
      vertex 5 54 5
      vertex 10.5 55.4019 5
      vertex 9 58 5
    endloop
  endfacet
  facet normal 0 0 1
    outer loop
      vertex 10.5 55.4019 5
      vertex 7.19598 45.4337 5
      vertex 14.2148 43.7486 5
    endloop
  endfacet
  facet normal -0 0 1
    outer loop
      vertex 5 62 5
      vertex 10.5 60.5981 5
      vertex 9.1 70 5
    endloop
  endfacet
  facet normal 0 0 1
    outer loop
      vertex 10.5 60.5981 5
      vertex 5 62 5
      vertex 9 58 5
    endloop
  endfacet
  facet normal 0 0 1
    outer loop
      vertex 9 58 5
      vertex 5 62 5
      vertex 5 54 5
    endloop
  endfacet
  facet normal -0 0 1
    outer loop
      vertex 0 70 5
      vertex 5 62 5
      vertex 9.1 70 5
    endloop
  endfacet
  facet normal 0 0 1
    outer loop
      vertex 5 62 5
      vertex 0 70 5
      vertex 0 61 5
    endloop
  endfacet
  facet normal 0 0 1
    outer loop
      vertex 10.5 55.4019 5
      vertex 5 54 5
      vertex 7.19598 45.4337 5
    endloop
  endfacet
  facet normal 0 0 1
    outer loop
      vertex 0 46 5
      vertex 5 54 5
      vertex 0 55 5
    endloop
  endfacet
  facet normal 0 0 1
    outer loop
      vertex 5 54 5
      vertex 0 46 5
      vertex 7.19598 45.4337 5
    endloop
  endfacet
  facet normal 0 0 1
    outer loop
      vertex 45.4337 7.19598 5
      vertex 56.5 9.40192 5
      vertex 55 12 5
    endloop
  endfacet
  facet normal 0 0 1
    outer loop
      vertex 56.5 14.5981 5
      vertex 37.2148 27.0381 5
      vertex 40.9863 20.8836 5
    endloop
  endfacet
  facet normal -0 0 1
    outer loop
      vertex 45.4337 7.19598 5
      vertex 55.1 0 5
      vertex 56.5 9.40192 5
    endloop
  endfacet
  facet normal 1 -0 0
    outer loop
      vertex 70 0 5
      vertex 70 9 0
      vertex 70 9 5
    endloop
  endfacet
  facet normal 1 0 0
    outer loop
      vertex 70 9 0
      vertex 70 0 5
      vertex 70 0 0
    endloop
  endfacet
  facet normal 1 -0 0
    outer loop
      vertex 70 60.9 5
      vertex 70 70 0
      vertex 70 70 5
    endloop
  endfacet
  facet normal 1 0 0
    outer loop
      vertex 70 70 0
      vertex 70 60.9 5
      vertex 70 60.9 0
    endloop
  endfacet
  facet normal 1 -0 0
    outer loop
      vertex 70 15 5
      vertex 70 55.1 0
      vertex 70 55.1 5
    endloop
  endfacet
  facet normal 1 0 0
    outer loop
      vertex 70 55.1 0
      vertex 70 15 5
      vertex 70 15 0
    endloop
  endfacet
  facet normal 0 1 -0
    outer loop
      vertex 70 70 0
      vertex 61 70 5
      vertex 70 70 5
    endloop
  endfacet
  facet normal 0 1 0
    outer loop
      vertex 61 70 5
      vertex 70 70 0
      vertex 61 70 0
    endloop
  endfacet
  facet normal 0 1 -0
    outer loop
      vertex 9.1 70 0
      vertex 0 70 5
      vertex 9.1 70 5
    endloop
  endfacet
  facet normal 0 1 0
    outer loop
      vertex 0 70 5
      vertex 9.1 70 0
      vertex 0 70 0
    endloop
  endfacet
  facet normal 0 1 -0
    outer loop
      vertex 55 70 0
      vertex 14.9 70 5
      vertex 55 70 5
    endloop
  endfacet
  facet normal 0 1 0
    outer loop
      vertex 14.9 70 5
      vertex 55 70 0
      vertex 14.9 70 0
    endloop
  endfacet
  facet normal 0 0 -1
    outer loop
      vertex 13.5 55.4019 0
      vertex 56.5 55.4019 0
      vertex 13.5 14.5981 0
    endloop
  endfacet
  facet normal 0 0 -1
    outer loop
      vertex 56.5 55.4019 0
      vertex 13.5 55.4019 0
      vertex 15 58 0
    endloop
  endfacet
  facet normal 0 0 -1
    outer loop
      vertex 5 54 0
      vertex 13.5 14.5981 0
      vertex 10.5 14.5981 0
    endloop
  endfacet
  facet normal 0 0 -1
    outer loop
      vertex 13.5 14.5981 0
      vertex 5 54 0
      vertex 13.5 55.4019 0
    endloop
  endfacet
  facet normal 0 0 -1
    outer loop
      vertex 0 14.9 0
      vertex 10.5 14.5981 0
      vertex 9 12 0
    endloop
  endfacet
  facet normal -0 0 -1
    outer loop
      vertex 13.5 55.4019 0
      vertex 5 54 0
      vertex 10.5 55.4019 0
    endloop
  endfacet
  facet normal 0 0 -1
    outer loop
      vertex 16 5 0
      vertex 13.5 9.40192 0
      vertex 15 12 0
    endloop
  endfacet
  facet normal 0 0 -1
    outer loop
      vertex 16 5 0
      vertex 10.5 9.40192 0
      vertex 13.5 9.40192 0
    endloop
  endfacet
  facet normal 0 0 -1
    outer loop
      vertex 0 9.1 0
      vertex 9 12 0
      vertex 8 5 0
    endloop
  endfacet
  facet normal -0 0 -1
    outer loop
      vertex 10.5 9.40192 0
      vertex 8 5 0
      vertex 9 12 0
    endloop
  endfacet
  facet normal 0 0 -1
    outer loop
      vertex 8 5 0
      vertex 10.5 9.40192 0
      vertex 16 5 0
    endloop
  endfacet
  facet normal 0 0 -1
    outer loop
      vertex 60.9 0 0
      vertex 56.5 9.40192 0
      vertex 59.5 9.40192 0
    endloop
  endfacet
  facet normal 0 0 -1
    outer loop
      vertex 55.1 0 0
      vertex 60.9 0 0
      vertex 61.9 -5 0
    endloop
  endfacet
  facet normal 0 0 -1
    outer loop
      vertex 60.9 0 0
      vertex 55.1 0 0
      vertex 56.5 9.40192 0
    endloop
  endfacet
  facet normal 0 -0 -1
    outer loop
      vertex 55.1 0 0
      vertex 61.9 -5 0
      vertex 54.1 -5 0
    endloop
  endfacet
  facet normal 0 0 -1
    outer loop
      vertex 56.5 14.5981 0
      vertex 65 16 0
      vertex 59.5 14.5981 0
    endloop
  endfacet
  facet normal 0 0 -1
    outer loop
      vertex 65 16 0
      vertex 59.5 55.4019 0
      vertex 61 58 0
    endloop
  endfacet
  facet normal 0 0 -1
    outer loop
      vertex 56.5 55.4019 0
      vertex 65 16 0
      vertex 56.5 14.5981 0
    endloop
  endfacet
  facet normal 0 0 -1
    outer loop
      vertex 65 16 0
      vertex 56.5 55.4019 0
      vertex 59.5 55.4019 0
    endloop
  endfacet
  facet normal 0 0 -1
    outer loop
      vertex 15 12 0
      vertex 56.5 14.5981 0
      vertex 55 12 0
    endloop
  endfacet
  facet normal 0 0 -1
    outer loop
      vertex 13.5 14.5981 0
      vertex 56.5 14.5981 0
      vertex 15 12 0
    endloop
  endfacet
  facet normal 0 0 -1
    outer loop
      vertex 70 0 0
      vertex 65 8 0
      vertex 70 9 0
    endloop
  endfacet
  facet normal 0 0 -1
    outer loop
      vertex 61 12 0
      vertex 65 16 0
      vertex 65 8 0
    endloop
  endfacet
  facet normal 0 0 -1
    outer loop
      vertex 59.5 14.5981 0
      vertex 65 16 0
      vertex 61 12 0
    endloop
  endfacet
  facet normal 0 0 -1
    outer loop
      vertex 60.9 0 0
      vertex 65 8 0
      vertex 70 0 0
    endloop
  endfacet
  facet normal -0 0 -1
    outer loop
      vertex 65 8 0
      vertex 60.9 0 0
      vertex 59.5 9.40192 0
    endloop
  endfacet
  facet normal 0 0 -1
    outer loop
      vertex 65 8 0
      vertex 59.5 9.40192 0
      vertex 61 12 0
    endloop
  endfacet
  facet normal 0 0 -1
    outer loop
      vertex 65 16 0
      vertex 70 55.1 0
      vertex 70 15 0
    endloop
  endfacet
  facet normal 0 0 -1
    outer loop
      vertex 62 65 0
      vertex 70 55.1 0
      vertex 65 16 0
    endloop
  endfacet
  facet normal 0 0 -1
    outer loop
      vertex 70 55.1 0
      vertex 62 65 0
      vertex 70 60.9 0
    endloop
  endfacet
  facet normal 0 0 -1
    outer loop
      vertex 70 60.9 0
      vertex 62 65 0
      vertex 70 70 0
    endloop
  endfacet
  facet normal -0 0 -1
    outer loop
      vertex 70 70 0
      vertex 62 65 0
      vertex 61 70 0
    endloop
  endfacet
  facet normal 0 0 -1
    outer loop
      vertex 70 55.1 0
      vertex 75 61.9 0
      vertex 75 54.1 0
    endloop
  endfacet
  facet normal 0 0 -1
    outer loop
      vertex 75 61.9 0
      vertex 70 55.1 0
      vertex 70 60.9 0
    endloop
  endfacet
  facet normal 0 0 -1
    outer loop
      vertex 65 16 0
      vertex 61 58 0
      vertex 62 65 0
    endloop
  endfacet
  facet normal 0 0 -1
    outer loop
      vertex 59.5 60.5981 0
      vertex 62 65 0
      vertex 61 58 0
    endloop
  endfacet
  facet normal 0 0 -1
    outer loop
      vertex 56.5 60.5981 0
      vertex 62 65 0
      vertex 59.5 60.5981 0
    endloop
  endfacet
  facet normal 0 0 -1
    outer loop
      vertex 56.5 60.5981 0
      vertex 54 65 0
      vertex 62 65 0
    endloop
  endfacet
  facet normal 0 0 -1
    outer loop
      vertex 54 65 0
      vertex 56.5 60.5981 0
      vertex 55 58 0
    endloop
  endfacet
  facet normal 0 0 -1
    outer loop
      vertex 55.1 0 0
      vertex 55 12 0
      vertex 56.5 9.40192 0
    endloop
  endfacet
  facet normal 0 0 -1
    outer loop
      vertex 56.5 55.4019 0
      vertex 15 58 0
      vertex 55 58 0
    endloop
  endfacet
  facet normal 0 0 -1
    outer loop
      vertex 16 5 0
      vertex 55 12 0
      vertex 55.1 0 0
    endloop
  endfacet
  facet normal -0 0 -1
    outer loop
      vertex 55 12 0
      vertex 16 5 0
      vertex 15 12 0
    endloop
  endfacet
  facet normal 0 -0 -1
    outer loop
      vertex 16 5 0
      vertex 55.1 0 0
      vertex 15 0 0
    endloop
  endfacet
  facet normal 0 0 -1
    outer loop
      vertex 56.5 14.5981 0
      vertex 13.5 14.5981 0
      vertex 56.5 55.4019 0
    endloop
  endfacet
  facet normal 0 0 -1
    outer loop
      vertex 55 58 0
      vertex 15 58 0
      vertex 54 65 0
    endloop
  endfacet
  facet normal 0 0 -1
    outer loop
      vertex 14.9 70 0
      vertex 54 65 0
      vertex 15 58 0
    endloop
  endfacet
  facet normal 0 0 -1
    outer loop
      vertex 54 65 0
      vertex 14.9 70 0
      vertex 55 70 0
    endloop
  endfacet
  facet normal 0 -0 -1
    outer loop
      vertex 14.9 70 0
      vertex 15 58 0
      vertex 13.5 60.5981 0
    endloop
  endfacet
  facet normal 0 0 -1
    outer loop
      vertex 10.5 60.5981 0
      vertex 14.9 70 0
      vertex 13.5 60.5981 0
    endloop
  endfacet
  facet normal 0 0 -1
    outer loop
      vertex 9.1 70 0
      vertex 14.9 70 0
      vertex 10.5 60.5981 0
    endloop
  endfacet
  facet normal 0 0 -1
    outer loop
      vertex 14.9 70 0
      vertex 9.1 70 0
      vertex 15.9 75 0
    endloop
  endfacet
  facet normal -0 0 -1
    outer loop
      vertex 15.9 75 0
      vertex 9.1 70 0
      vertex 8.1 75 0
    endloop
  endfacet
  facet normal 0 0 -1
    outer loop
      vertex -5 8.1 0
      vertex 0 14.9 0
      vertex 0 9.1 0
    endloop
  endfacet
  facet normal -0 0 -1
    outer loop
      vertex 0 14.9 0
      vertex -5 8.1 0
      vertex -5 15.9 0
    endloop
  endfacet
  facet normal 0 0 -1
    outer loop
      vertex 0 0 0
      vertex 8 5 0
      vertex 9 0 0
    endloop
  endfacet
  facet normal 0 0 -1
    outer loop
      vertex 0 9.1 0
      vertex 8 5 0
      vertex 0 0 0
    endloop
  endfacet
  facet normal -0 0 -1
    outer loop
      vertex 9 12 0
      vertex 0 9.1 0
      vertex 0 14.9 0
    endloop
  endfacet
  facet normal 0 0 -1
    outer loop
      vertex 10.5 14.5981 0
      vertex 0 14.9 0
      vertex 5 54 0
    endloop
  endfacet
  facet normal -0 0 -1
    outer loop
      vertex 5 54 0
      vertex 0 14.9 0
      vertex 0 55 0
    endloop
  endfacet
  facet normal 0 0 -1
    outer loop
      vertex 5 62 0
      vertex 10.5 60.5981 0
      vertex 9 58 0
    endloop
  endfacet
  facet normal -0 0 -1
    outer loop
      vertex 10.5 55.4019 0
      vertex 5 54 0
      vertex 9 58 0
    endloop
  endfacet
  facet normal 0 0 -1
    outer loop
      vertex 5 62 0
      vertex 9 58 0
      vertex 5 54 0
    endloop
  endfacet
  facet normal 0 0 -1
    outer loop
      vertex 10.5 60.5981 0
      vertex 5 62 0
      vertex 9.1 70 0
    endloop
  endfacet
  facet normal 0 0 -1
    outer loop
      vertex 0 70 0
      vertex 5 62 0
      vertex 0 61 0
    endloop
  endfacet
  facet normal 0 0 -1
    outer loop
      vertex 5 62 0
      vertex 0 70 0
      vertex 9.1 70 0
    endloop
  endfacet
  facet normal 0 -1 0
    outer loop
      vertex 0 0 0
      vertex 9 0 5
      vertex 0 0 5
    endloop
  endfacet
  facet normal 0 -1 -0
    outer loop
      vertex 9 0 5
      vertex 0 0 0
      vertex 9 0 0
    endloop
  endfacet
  facet normal 0 -1 0
    outer loop
      vertex 60.9 0 0
      vertex 70 0 5
      vertex 60.9 0 5
    endloop
  endfacet
  facet normal 0 -1 -0
    outer loop
      vertex 70 0 5
      vertex 60.9 0 0
      vertex 70 0 0
    endloop
  endfacet
  facet normal 0 -1 0
    outer loop
      vertex 15 0 5
      vertex 24 0 3
      vertex 24 0 5
    endloop
  endfacet
  facet normal 0 -1 -0
    outer loop
      vertex 24 0 3
      vertex 15 0 0
      vertex 46 0 3
    endloop
  endfacet
  facet normal 0 -1 0
    outer loop
      vertex 15 0 0
      vertex 24 0 3
      vertex 15 0 5
    endloop
  endfacet
  facet normal 0 -1 0
    outer loop
      vertex 46 0 3
      vertex 55.1 0 5
      vertex 46 0 5
    endloop
  endfacet
  facet normal 0 -1 0
    outer loop
      vertex 46 0 3
      vertex 55.1 0 0
      vertex 55.1 0 5
    endloop
  endfacet
  facet normal 0 -1 0
    outer loop
      vertex 55.1 0 0
      vertex 46 0 3
      vertex 15 0 0
    endloop
  endfacet
  facet normal -0.980581 0.196116 0
    outer loop
      vertex 15 0 0
      vertex 16 5 5
      vertex 16 5 0
    endloop
  endfacet
  facet normal -0.980581 0.196116 0
    outer loop
      vertex 16 5 5
      vertex 15 0 0
      vertex 15 0 5
    endloop
  endfacet
  facet normal 0 -1 0
    outer loop
      vertex 8 5 0
      vertex 16 5 5
      vertex 8 5 5
    endloop
  endfacet
  facet normal 0 -1 -0
    outer loop
      vertex 16 5 5
      vertex 8 5 0
      vertex 16 5 0
    endloop
  endfacet
  facet normal 0.980581 0.196116 0
    outer loop
      vertex 9 0 5
      vertex 8 5 0
      vertex 8 5 5
    endloop
  endfacet
  facet normal 0.980581 0.196116 0
    outer loop
      vertex 8 5 0
      vertex 9 0 5
      vertex 9 0 0
    endloop
  endfacet
  facet normal -0.980581 -0.196116 0
    outer loop
      vertex 62 65 0
      vertex 61 70 5
      vertex 61 70 0
    endloop
  endfacet
  facet normal -0.980581 -0.196116 0
    outer loop
      vertex 61 70 5
      vertex 62 65 0
      vertex 62 65 5
    endloop
  endfacet
  facet normal 0.980581 -0.196116 0
    outer loop
      vertex 54 65 5
      vertex 55 70 0
      vertex 55 70 5
    endloop
  endfacet
  facet normal 0.980581 -0.196116 0
    outer loop
      vertex 55 70 0
      vertex 54 65 5
      vertex 54 65 0
    endloop
  endfacet
  facet normal 0 1 -0
    outer loop
      vertex 62 65 0
      vertex 54 65 5
      vertex 62 65 5
    endloop
  endfacet
  facet normal 0 1 0
    outer loop
      vertex 54 65 5
      vertex 62 65 0
      vertex 54 65 0
    endloop
  endfacet
  facet normal -0.196116 -0.980581 0
    outer loop
      vertex 65 16 0
      vertex 70 15 5
      vertex 65 16 5
    endloop
  endfacet
  facet normal -0.196116 -0.980581 -0
    outer loop
      vertex 70 15 5
      vertex 65 16 0
      vertex 70 15 0
    endloop
  endfacet
  facet normal 1 -0 0
    outer loop
      vertex 65 8 5
      vertex 65 16 0
      vertex 65 16 5
    endloop
  endfacet
  facet normal 1 0 0
    outer loop
      vertex 65 16 0
      vertex 65 8 5
      vertex 65 8 0
    endloop
  endfacet
  facet normal -0.196116 0.980581 0
    outer loop
      vertex 70 9 0
      vertex 65 8 5
      vertex 70 9 5
    endloop
  endfacet
  facet normal -0.196116 0.980581 0
    outer loop
      vertex 65 8 5
      vertex 70 9 0
      vertex 65 8 0
    endloop
  endfacet
  facet normal 0.196116 0.980581 -0
    outer loop
      vertex 5 54 0
      vertex 0 55 5
      vertex 5 54 5
    endloop
  endfacet
  facet normal 0.196116 0.980581 0
    outer loop
      vertex 0 55 5
      vertex 5 54 0
      vertex 0 55 0
    endloop
  endfacet
  facet normal 0.196116 -0.980581 0
    outer loop
      vertex 0 61 0
      vertex 5 62 5
      vertex 0 61 5
    endloop
  endfacet
  facet normal 0.196116 -0.980581 0
    outer loop
      vertex 5 62 5
      vertex 0 61 0
      vertex 5 62 0
    endloop
  endfacet
  facet normal -1 0 0
    outer loop
      vertex 5 54 0
      vertex 5 62 5
      vertex 5 62 0
    endloop
  endfacet
  facet normal -1 -0 0
    outer loop
      vertex 5 62 5
      vertex 5 54 0
      vertex 5 54 5
    endloop
  endfacet
  facet normal 0.980581 0.196116 0
    outer loop
      vertex 61.9 -5 5
      vertex 60.9 0 0
      vertex 60.9 0 5
    endloop
  endfacet
  facet normal 0.980581 0.196116 0
    outer loop
      vertex 60.9 0 0
      vertex 61.9 -5 5
      vertex 61.9 -5 0
    endloop
  endfacet
  facet normal -0.980581 0.196116 0
    outer loop
      vertex 54.1 -5 0
      vertex 55.1 0 5
      vertex 55.1 0 0
    endloop
  endfacet
  facet normal -0.980581 0.196116 0
    outer loop
      vertex 55.1 0 5
      vertex 54.1 -5 0
      vertex 54.1 -5 5
    endloop
  endfacet
  facet normal 0 -1 0
    outer loop
      vertex 54.1 -5 0
      vertex 61.9 -5 5
      vertex 54.1 -5 5
    endloop
  endfacet
  facet normal 0 -1 -0
    outer loop
      vertex 61.9 -5 5
      vertex 54.1 -5 0
      vertex 61.9 -5 0
    endloop
  endfacet
  facet normal 0.980581 -0.196116 0
    outer loop
      vertex 14.9 70 5
      vertex 15.9 75 0
      vertex 15.9 75 5
    endloop
  endfacet
  facet normal 0.980581 -0.196116 0
    outer loop
      vertex 15.9 75 0
      vertex 14.9 70 5
      vertex 14.9 70 0
    endloop
  endfacet
  facet normal 0 1 -0
    outer loop
      vertex 15.9 75 0
      vertex 8.1 75 5
      vertex 15.9 75 5
    endloop
  endfacet
  facet normal 0 1 0
    outer loop
      vertex 8.1 75 5
      vertex 15.9 75 0
      vertex 8.1 75 0
    endloop
  endfacet
  facet normal -0.980581 -0.196116 0
    outer loop
      vertex 9.1 70 0
      vertex 8.1 75 5
      vertex 8.1 75 0
    endloop
  endfacet
  facet normal -0.980581 -0.196116 0
    outer loop
      vertex 8.1 75 5
      vertex 9.1 70 0
      vertex 9.1 70 5
    endloop
  endfacet
  facet normal -0.196116 -0.980581 0
    outer loop
      vertex 70 55.1 0
      vertex 75 54.1 5
      vertex 70 55.1 5
    endloop
  endfacet
  facet normal -0.196116 -0.980581 -0
    outer loop
      vertex 75 54.1 5
      vertex 70 55.1 0
      vertex 75 54.1 0
    endloop
  endfacet
  facet normal -0.196116 0.980581 0
    outer loop
      vertex 75 61.9 0
      vertex 70 60.9 5
      vertex 75 61.9 5
    endloop
  endfacet
  facet normal -0.196116 0.980581 0
    outer loop
      vertex 70 60.9 5
      vertex 75 61.9 0
      vertex 70 60.9 0
    endloop
  endfacet
  facet normal 1 -0 0
    outer loop
      vertex 75 54.1 5
      vertex 75 61.9 0
      vertex 75 61.9 5
    endloop
  endfacet
  facet normal 1 0 0
    outer loop
      vertex 75 61.9 0
      vertex 75 54.1 5
      vertex 75 54.1 0
    endloop
  endfacet
  facet normal 0.196116 0.980581 -0
    outer loop
      vertex 0 14.9 0
      vertex -5 15.9 5
      vertex 0 14.9 5
    endloop
  endfacet
  facet normal 0.196116 0.980581 0
    outer loop
      vertex -5 15.9 5
      vertex 0 14.9 0
      vertex -5 15.9 0
    endloop
  endfacet
  facet normal -1 0 0
    outer loop
      vertex -5 8.1 0
      vertex -5 15.9 5
      vertex -5 15.9 0
    endloop
  endfacet
  facet normal -1 -0 0
    outer loop
      vertex -5 15.9 5
      vertex -5 8.1 0
      vertex -5 8.1 5
    endloop
  endfacet
  facet normal 0.196116 -0.980581 0
    outer loop
      vertex -5 8.1 0
      vertex 0 9.1 5
      vertex -5 8.1 5
    endloop
  endfacet
  facet normal 0.196116 -0.980581 0
    outer loop
      vertex 0 9.1 5
      vertex -5 8.1 0
      vertex 0 9.1 0
    endloop
  endfacet
  facet normal -0.996918 -0.0784542 0
    outer loop
      vertex 46 0 3
      vertex 45.4337 7.19598 5
      vertex 45.4337 7.19598 3
    endloop
  endfacet
  facet normal -0.996918 -0.0784542 0
    outer loop
      vertex 45.4337 7.19598 5
      vertex 46 0 3
      vertex 46 0 5
    endloop
  endfacet
  facet normal -0.0784542 -0.996918 0
    outer loop
      vertex 0 46 3
      vertex 7.19598 45.4337 5
      vertex 0 46 5
    endloop
  endfacet
  facet normal -0.0784542 -0.996918 -0
    outer loop
      vertex 7.19598 45.4337 5
      vertex 0 46 3
      vertex 7.19598 45.4337 3
    endloop
  endfacet
  facet normal -0.760404 -0.64945 0
    outer loop
      vertex 37.2148 27.0381 3
      vertex 32.5269 32.5269 5
      vertex 32.5269 32.5269 3
    endloop
  endfacet
  facet normal -0.760404 -0.64945 0
    outer loop
      vertex 32.5269 32.5269 5
      vertex 37.2148 27.0381 3
      vertex 37.2148 27.0381 5
    endloop
  endfacet
  facet normal 0 0 1
    outer loop
      vertex 23.7045 3.75443 3
      vertex 45.4337 7.19598 3
      vertex 43.7486 14.2148 3
    endloop
  endfacet
  facet normal 0 0 1
    outer loop
      vertex 22.8254 7.41641 3
      vertex 43.7486 14.2148 3
      vertex 40.9863 20.8836 3
    endloop
  endfacet
  facet normal 0 0 1
    outer loop
      vertex 21.3842 10.8958 3
      vertex 40.9863 20.8836 3
      vertex 37.2148 27.0381 3
    endloop
  endfacet
  facet normal 0 0 1
    outer loop
      vertex 19.4164 14.1068 3
      vertex 37.2148 27.0381 3
      vertex 32.5269 32.5269 3
    endloop
  endfacet
  facet normal 0 0 1
    outer loop
      vertex 16.9706 16.9706 3
      vertex 32.5269 32.5269 3
      vertex 27.0381 37.2148 3
    endloop
  endfacet
  facet normal 0 0 1
    outer loop
      vertex 40.9863 20.8836 3
      vertex 21.3842 10.8958 3
      vertex 22.8254 7.41641 3
    endloop
  endfacet
  facet normal 0 0 1
    outer loop
      vertex 46 0 3
      vertex 23.7045 3.75443 3
      vertex 24 0 3
    endloop
  endfacet
  facet normal 0 0 1
    outer loop
      vertex 45.4337 7.19598 3
      vertex 23.7045 3.75443 3
      vertex 46 0 3
    endloop
  endfacet
  facet normal 0 -0 1
    outer loop
      vertex 23.7045 3.75443 3
      vertex 43.7486 14.2148 3
      vertex 22.8254 7.41641 3
    endloop
  endfacet
  facet normal 0 0 1
    outer loop
      vertex 14.1068 19.4164 3
      vertex 27.0381 37.2148 3
      vertex 20.8836 40.9863 3
    endloop
  endfacet
  facet normal 0 0 1
    outer loop
      vertex 37.2148 27.0381 3
      vertex 19.4164 14.1068 3
      vertex 21.3842 10.8958 3
    endloop
  endfacet
  facet normal 0 0 1
    outer loop
      vertex 32.5269 32.5269 3
      vertex 16.9706 16.9706 3
      vertex 19.4164 14.1068 3
    endloop
  endfacet
  facet normal 0 0 1
    outer loop
      vertex 10.8958 21.3842 3
      vertex 20.8836 40.9863 3
      vertex 14.2148 43.7486 3
    endloop
  endfacet
  facet normal 0 0 1
    outer loop
      vertex 27.0381 37.2148 3
      vertex 14.1068 19.4164 3
      vertex 16.9706 16.9706 3
    endloop
  endfacet
  facet normal 0 0 1
    outer loop
      vertex 20.8836 40.9863 3
      vertex 10.8958 21.3842 3
      vertex 14.1068 19.4164 3
    endloop
  endfacet
  facet normal 0 0 1
    outer loop
      vertex 14.2148 43.7486 3
      vertex 7.41641 22.8254 3
      vertex 10.8958 21.3842 3
    endloop
  endfacet
  facet normal 0 0 1
    outer loop
      vertex 7.19598 45.4337 3
      vertex 7.41641 22.8254 3
      vertex 14.2148 43.7486 3
    endloop
  endfacet
  facet normal 0 0 1
    outer loop
      vertex 7.19598 45.4337 3
      vertex 3.75443 23.7045 3
      vertex 7.41641 22.8254 3
    endloop
  endfacet
  facet normal 0 0 1
    outer loop
      vertex 0 46 3
      vertex 3.75443 23.7045 3
      vertex 7.19598 45.4337 3
    endloop
  endfacet
  facet normal 0 0 1
    outer loop
      vertex 3.75443 23.7045 3
      vertex 0 46 3
      vertex 0 24 3
    endloop
  endfacet
  facet normal -0.92388 -0.382683 0
    outer loop
      vertex 43.7486 14.2148 3
      vertex 40.9863 20.8836 5
      vertex 40.9863 20.8836 3
    endloop
  endfacet
  facet normal -0.92388 -0.382683 0
    outer loop
      vertex 40.9863 20.8836 5
      vertex 43.7486 14.2148 3
      vertex 43.7486 14.2148 5
    endloop
  endfacet
  facet normal -0.972369 -0.233449 0
    outer loop
      vertex 45.4337 7.19598 3
      vertex 43.7486 14.2148 5
      vertex 43.7486 14.2148 3
    endloop
  endfacet
  facet normal -0.972369 -0.233449 0
    outer loop
      vertex 43.7486 14.2148 5
      vertex 45.4337 7.19598 3
      vertex 45.4337 7.19598 5
    endloop
  endfacet
  facet normal -0.852639 -0.5225 0
    outer loop
      vertex 40.9863 20.8836 3
      vertex 37.2148 27.0381 5
      vertex 37.2148 27.0381 3
    endloop
  endfacet
  facet normal -0.852639 -0.5225 0
    outer loop
      vertex 37.2148 27.0381 5
      vertex 40.9863 20.8836 3
      vertex 40.9863 20.8836 5
    endloop
  endfacet
  facet normal -0.5225 -0.852639 0
    outer loop
      vertex 20.8836 40.9863 3
      vertex 27.0381 37.2148 5
      vertex 20.8836 40.9863 5
    endloop
  endfacet
  facet normal -0.5225 -0.852639 -0
    outer loop
      vertex 27.0381 37.2148 5
      vertex 20.8836 40.9863 3
      vertex 27.0381 37.2148 3
    endloop
  endfacet
  facet normal -0.64945 -0.760404 0
    outer loop
      vertex 27.0381 37.2148 3
      vertex 32.5269 32.5269 5
      vertex 27.0381 37.2148 5
    endloop
  endfacet
  facet normal -0.64945 -0.760404 -0
    outer loop
      vertex 32.5269 32.5269 5
      vertex 27.0381 37.2148 3
      vertex 32.5269 32.5269 3
    endloop
  endfacet
  facet normal -0.382683 -0.92388 0
    outer loop
      vertex 14.2148 43.7486 3
      vertex 20.8836 40.9863 5
      vertex 14.2148 43.7486 5
    endloop
  endfacet
  facet normal -0.382683 -0.92388 -0
    outer loop
      vertex 20.8836 40.9863 5
      vertex 14.2148 43.7486 3
      vertex 20.8836 40.9863 3
    endloop
  endfacet
  facet normal -0.233449 -0.972369 0
    outer loop
      vertex 7.19598 45.4337 3
      vertex 14.2148 43.7486 5
      vertex 7.19598 45.4337 5
    endloop
  endfacet
  facet normal -0.233449 -0.972369 -0
    outer loop
      vertex 14.2148 43.7486 5
      vertex 7.19598 45.4337 3
      vertex 14.2148 43.7486 3
    endloop
  endfacet
  facet normal 0.996917 0.0784644 0
    outer loop
      vertex 24 0 5
      vertex 23.7045 3.75443 3
      vertex 23.7045 3.75443 5
    endloop
  endfacet
  facet normal 0.996917 0.0784644 0
    outer loop
      vertex 23.7045 3.75443 3
      vertex 24 0 5
      vertex 24 0 3
    endloop
  endfacet
  facet normal 0.0784644 0.996917 -0
    outer loop
      vertex 3.75443 23.7045 3
      vertex 0 24 5
      vertex 3.75443 23.7045 5
    endloop
  endfacet
  facet normal 0.0784644 0.996917 0
    outer loop
      vertex 0 24 5
      vertex 3.75443 23.7045 3
      vertex 0 24 3
    endloop
  endfacet
  facet normal 0.64943 0.760421 -0
    outer loop
      vertex 16.9706 16.9706 3
      vertex 14.1068 19.4164 5
      vertex 16.9706 16.9706 5
    endloop
  endfacet
  facet normal 0.64943 0.760421 0
    outer loop
      vertex 14.1068 19.4164 5
      vertex 16.9706 16.9706 3
      vertex 14.1068 19.4164 3
    endloop
  endfacet
  facet normal 0.923881 0.382681 0
    outer loop
      vertex 22.8254 7.41641 5
      vertex 21.3842 10.8958 3
      vertex 21.3842 10.8958 5
    endloop
  endfacet
  facet normal 0.923881 0.382681 0
    outer loop
      vertex 21.3842 10.8958 3
      vertex 22.8254 7.41641 5
      vertex 22.8254 7.41641 3
    endloop
  endfacet
  facet normal 0.972374 0.233429 0
    outer loop
      vertex 23.7045 3.75443 5
      vertex 22.8254 7.41641 3
      vertex 22.8254 7.41641 5
    endloop
  endfacet
  facet normal 0.972374 0.233429 0
    outer loop
      vertex 22.8254 7.41641 3
      vertex 23.7045 3.75443 5
      vertex 23.7045 3.75443 3
    endloop
  endfacet
  facet normal 0.852629 0.522517 0
    outer loop
      vertex 21.3842 10.8958 5
      vertex 19.4164 14.1068 3
      vertex 19.4164 14.1068 5
    endloop
  endfacet
  facet normal 0.852629 0.522517 0
    outer loop
      vertex 19.4164 14.1068 3
      vertex 21.3842 10.8958 5
      vertex 21.3842 10.8958 3
    endloop
  endfacet
  facet normal 0.382681 0.923881 -0
    outer loop
      vertex 10.8958 21.3842 3
      vertex 7.41641 22.8254 5
      vertex 10.8958 21.3842 5
    endloop
  endfacet
  facet normal 0.382681 0.923881 0
    outer loop
      vertex 7.41641 22.8254 5
      vertex 10.8958 21.3842 3
      vertex 7.41641 22.8254 3
    endloop
  endfacet
  facet normal 0.233429 0.972374 -0
    outer loop
      vertex 7.41641 22.8254 3
      vertex 3.75443 23.7045 5
      vertex 7.41641 22.8254 5
    endloop
  endfacet
  facet normal 0.233429 0.972374 0
    outer loop
      vertex 3.75443 23.7045 5
      vertex 7.41641 22.8254 3
      vertex 3.75443 23.7045 3
    endloop
  endfacet
  facet normal 0.522517 0.852629 -0
    outer loop
      vertex 14.1068 19.4164 3
      vertex 10.8958 21.3842 5
      vertex 14.1068 19.4164 5
    endloop
  endfacet
  facet normal 0.522517 0.852629 0
    outer loop
      vertex 10.8958 21.3842 5
      vertex 14.1068 19.4164 3
      vertex 10.8958 21.3842 3
    endloop
  endfacet
  facet normal 0.760421 0.64943 0
    outer loop
      vertex 19.4164 14.1068 5
      vertex 16.9706 16.9706 3
      vertex 16.9706 16.9706 5
    endloop
  endfacet
  facet normal 0.760421 0.64943 0
    outer loop
      vertex 16.9706 16.9706 3
      vertex 19.4164 14.1068 5
      vertex 19.4164 14.1068 3
    endloop
  endfacet
  facet normal -0.866027 -0.499997 0
    outer loop
      vertex 15 12 0
      vertex 13.5 14.5981 5
      vertex 13.5 14.5981 0
    endloop
  endfacet
  facet normal -0.866027 -0.499997 0
    outer loop
      vertex 13.5 14.5981 5
      vertex 15 12 0
      vertex 15 12 5
    endloop
  endfacet
  facet normal 0 1 -0
    outer loop
      vertex 13.5 9.40192 0
      vertex 10.5 9.40192 5
      vertex 13.5 9.40192 5
    endloop
  endfacet
  facet normal 0 1 0
    outer loop
      vertex 10.5 9.40192 5
      vertex 13.5 9.40192 0
      vertex 10.5 9.40192 0
    endloop
  endfacet
  facet normal 0.866027 -0.499997 0
    outer loop
      vertex 9 12 5
      vertex 10.5 14.5981 0
      vertex 10.5 14.5981 5
    endloop
  endfacet
  facet normal 0.866027 -0.499997 0
    outer loop
      vertex 10.5 14.5981 0
      vertex 9 12 5
      vertex 9 12 0
    endloop
  endfacet
  facet normal 0 -1 0
    outer loop
      vertex 10.5 14.5981 0
      vertex 13.5 14.5981 5
      vertex 10.5 14.5981 5
    endloop
  endfacet
  facet normal 0 -1 -0
    outer loop
      vertex 13.5 14.5981 5
      vertex 10.5 14.5981 0
      vertex 13.5 14.5981 0
    endloop
  endfacet
  facet normal 0.866026 0.499999 0
    outer loop
      vertex 10.5 9.40192 5
      vertex 9 12 0
      vertex 9 12 5
    endloop
  endfacet
  facet normal 0.866026 0.499999 0
    outer loop
      vertex 9 12 0
      vertex 10.5 9.40192 5
      vertex 10.5 9.40192 0
    endloop
  endfacet
  facet normal -0.866026 0.499999 0
    outer loop
      vertex 13.5 9.40192 0
      vertex 15 12 5
      vertex 15 12 0
    endloop
  endfacet
  facet normal -0.866026 0.499999 0
    outer loop
      vertex 15 12 5
      vertex 13.5 9.40192 0
      vertex 13.5 9.40192 5
    endloop
  endfacet
  facet normal -0.866027 -0.499997 0
    outer loop
      vertex 61 12 0
      vertex 59.5 14.5981 5
      vertex 59.5 14.5981 0
    endloop
  endfacet
  facet normal -0.866027 -0.499997 0
    outer loop
      vertex 59.5 14.5981 5
      vertex 61 12 0
      vertex 61 12 5
    endloop
  endfacet
  facet normal 0 1 -0
    outer loop
      vertex 59.5 9.40192 0
      vertex 56.5 9.40192 5
      vertex 59.5 9.40192 5
    endloop
  endfacet
  facet normal 0 1 0
    outer loop
      vertex 56.5 9.40192 5
      vertex 59.5 9.40192 0
      vertex 56.5 9.40192 0
    endloop
  endfacet
  facet normal 0.866027 -0.499997 0
    outer loop
      vertex 55 12 5
      vertex 56.5 14.5981 0
      vertex 56.5 14.5981 5
    endloop
  endfacet
  facet normal 0.866027 -0.499997 0
    outer loop
      vertex 56.5 14.5981 0
      vertex 55 12 5
      vertex 55 12 0
    endloop
  endfacet
  facet normal 0 -1 0
    outer loop
      vertex 56.5 14.5981 0
      vertex 59.5 14.5981 5
      vertex 56.5 14.5981 5
    endloop
  endfacet
  facet normal 0 -1 -0
    outer loop
      vertex 59.5 14.5981 5
      vertex 56.5 14.5981 0
      vertex 59.5 14.5981 0
    endloop
  endfacet
  facet normal 0.866026 0.499999 0
    outer loop
      vertex 56.5 9.40192 5
      vertex 55 12 0
      vertex 55 12 5
    endloop
  endfacet
  facet normal 0.866026 0.499999 0
    outer loop
      vertex 55 12 0
      vertex 56.5 9.40192 5
      vertex 56.5 9.40192 0
    endloop
  endfacet
  facet normal -0.866026 0.499999 0
    outer loop
      vertex 59.5 9.40192 0
      vertex 61 12 5
      vertex 61 12 0
    endloop
  endfacet
  facet normal -0.866026 0.499999 0
    outer loop
      vertex 61 12 5
      vertex 59.5 9.40192 0
      vertex 59.5 9.40192 5
    endloop
  endfacet
  facet normal -0.866027 -0.499997 0
    outer loop
      vertex 61 58 0
      vertex 59.5 60.5981 5
      vertex 59.5 60.5981 0
    endloop
  endfacet
  facet normal -0.866027 -0.499997 0
    outer loop
      vertex 59.5 60.5981 5
      vertex 61 58 0
      vertex 61 58 5
    endloop
  endfacet
  facet normal 0 1 -0
    outer loop
      vertex 59.5 55.4019 0
      vertex 56.5 55.4019 5
      vertex 59.5 55.4019 5
    endloop
  endfacet
  facet normal 0 1 0
    outer loop
      vertex 56.5 55.4019 5
      vertex 59.5 55.4019 0
      vertex 56.5 55.4019 0
    endloop
  endfacet
  facet normal 0.866027 -0.499997 0
    outer loop
      vertex 55 58 5
      vertex 56.5 60.5981 0
      vertex 56.5 60.5981 5
    endloop
  endfacet
  facet normal 0.866027 -0.499997 0
    outer loop
      vertex 56.5 60.5981 0
      vertex 55 58 5
      vertex 55 58 0
    endloop
  endfacet
  facet normal 0 -1 0
    outer loop
      vertex 56.5 60.5981 0
      vertex 59.5 60.5981 5
      vertex 56.5 60.5981 5
    endloop
  endfacet
  facet normal 0 -1 -0
    outer loop
      vertex 59.5 60.5981 5
      vertex 56.5 60.5981 0
      vertex 59.5 60.5981 0
    endloop
  endfacet
  facet normal 0.866027 0.499997 0
    outer loop
      vertex 56.5 55.4019 5
      vertex 55 58 0
      vertex 55 58 5
    endloop
  endfacet
  facet normal 0.866027 0.499997 0
    outer loop
      vertex 55 58 0
      vertex 56.5 55.4019 5
      vertex 56.5 55.4019 0
    endloop
  endfacet
  facet normal -0.866027 0.499997 0
    outer loop
      vertex 59.5 55.4019 0
      vertex 61 58 5
      vertex 61 58 0
    endloop
  endfacet
  facet normal -0.866027 0.499997 0
    outer loop
      vertex 61 58 5
      vertex 59.5 55.4019 0
      vertex 59.5 55.4019 5
    endloop
  endfacet
  facet normal -0.866027 -0.499997 0
    outer loop
      vertex 15 58 0
      vertex 13.5 60.5981 5
      vertex 13.5 60.5981 0
    endloop
  endfacet
  facet normal -0.866027 -0.499997 0
    outer loop
      vertex 13.5 60.5981 5
      vertex 15 58 0
      vertex 15 58 5
    endloop
  endfacet
  facet normal 0 1 -0
    outer loop
      vertex 13.5 55.4019 0
      vertex 10.5 55.4019 5
      vertex 13.5 55.4019 5
    endloop
  endfacet
  facet normal 0 1 0
    outer loop
      vertex 10.5 55.4019 5
      vertex 13.5 55.4019 0
      vertex 10.5 55.4019 0
    endloop
  endfacet
  facet normal 0.866027 -0.499997 0
    outer loop
      vertex 9 58 5
      vertex 10.5 60.5981 0
      vertex 10.5 60.5981 5
    endloop
  endfacet
  facet normal 0.866027 -0.499997 0
    outer loop
      vertex 10.5 60.5981 0
      vertex 9 58 5
      vertex 9 58 0
    endloop
  endfacet
  facet normal 0 -1 0
    outer loop
      vertex 10.5 60.5981 0
      vertex 13.5 60.5981 5
      vertex 10.5 60.5981 5
    endloop
  endfacet
  facet normal 0 -1 -0
    outer loop
      vertex 13.5 60.5981 5
      vertex 10.5 60.5981 0
      vertex 13.5 60.5981 0
    endloop
  endfacet
  facet normal 0.866027 0.499997 0
    outer loop
      vertex 10.5 55.4019 5
      vertex 9 58 0
      vertex 9 58 5
    endloop
  endfacet
  facet normal 0.866027 0.499997 0
    outer loop
      vertex 9 58 0
      vertex 10.5 55.4019 5
      vertex 10.5 55.4019 0
    endloop
  endfacet
  facet normal -0.866027 0.499997 0
    outer loop
      vertex 13.5 55.4019 0
      vertex 15 58 5
      vertex 15 58 0
    endloop
  endfacet
  facet normal -0.866027 0.499997 0
    outer loop
      vertex 15 58 5
      vertex 13.5 55.4019 0
      vertex 13.5 55.4019 5
    endloop
  endfacet
endsolid OpenSCAD_Model
