solid OpenSCAD_Model
  facet normal -1 0 0
    outer loop
      vertex 0 0 0
      vertex 0 9.1 5
      vertex 0 9.1 0
    endloop
  endfacet
  facet normal -1 -0 0
    outer loop
      vertex 0 9.1 5
      vertex 0 0 0
      vertex 0 0 5
    endloop
  endfacet
  facet normal -1 0 0
    outer loop
      vertex 0 61 0
      vertex 0 70 5
      vertex 0 70 0
    endloop
  endfacet
  facet normal -1 -0 0
    outer loop
      vertex 0 70 5
      vertex 0 61 0
      vertex 0 61 5
    endloop
  endfacet
  facet normal -1 0 0
    outer loop
      vertex 0 55 0
      vertex 0 46 3
      vertex 0 55 5
    endloop
  endfacet
  facet normal -1 0 0
    outer loop
      vertex 0 55 0
      vertex 0 24 3
      vertex 0 46 3
    endloop
  endfacet
  facet normal -1 0 0
    outer loop
      vertex 0 14.9 0
      vertex 0 24 3
      vertex 0 55 0
    endloop
  endfacet
  facet normal -1 0 0
    outer loop
      vertex 0 14.9 5
      vertex 0 24 3
      vertex 0 14.9 0
    endloop
  endfacet
  facet normal -1 0 0
    outer loop
      vertex 0 24 3
      vertex 0 14.9 5
      vertex 0 24 5
    endloop
  endfacet
  facet normal -1 -0 0
    outer loop
      vertex 0 55 5
      vertex 0 46 3
      vertex 0 46 5
    endloop
  endfacet
  facet normal 0 0 1
    outer loop
      vertex 70 55.1 5
      vertex 57 35 5
      vertex 70 15 5
    endloop
  endfacet
  facet normal 0 0 1
    outer loop
      vertex 70 15 5
      vertex 56.7291 31.5584 5
      vertex 65 16 5
    endloop
  endfacet
  facet normal -0 0 1
    outer loop
      vertex 55.9232 28.2016 5
      vertex 65 16 5
      vertex 56.7291 31.5584 5
    endloop
  endfacet
  facet normal -0 0 1
    outer loop
      vertex 56.7291 31.5584 5
      vertex 70 15 5
      vertex 57 35 5
    endloop
  endfacet
  facet normal 0 0 1
    outer loop
      vertex 52.7984 47.9313 5
      vertex 59.5 55.4019 5
      vertex 56.5 55.4019 5
    endloop
  endfacet
  facet normal 0 0 1
    outer loop
      vertex 59.5 55.4019 5
      vertex 55.9232 41.7984 5
      vertex 56.7291 38.4416 5
    endloop
  endfacet
  facet normal 0 0 1
    outer loop
      vertex 50.5564 50.5564 5
      vertex 56.5 55.4019 5
      vertex 55 58 5
    endloop
  endfacet
  facet normal 0 0 1
    outer loop
      vertex 59.5 55.4019 5
      vertex 54.6021 44.9878 5
      vertex 55.9232 41.7984 5
    endloop
  endfacet
  facet normal 0 0 1
    outer loop
      vertex 62 65 5
      vertex 59.5 60.5981 5
      vertex 61 58 5
    endloop
  endfacet
  facet normal 0 0 1
    outer loop
      vertex 62 65 5
      vertex 56.5 60.5981 5
      vertex 59.5 60.5981 5
    endloop
  endfacet
  facet normal -0 0 1
    outer loop
      vertex 54 65 5
      vertex 56.5 60.5981 5
      vertex 62 65 5
    endloop
  endfacet
  facet normal 0 0 1
    outer loop
      vertex 54 65 5
      vertex 55 58 5
      vertex 56.5 60.5981 5
    endloop
  endfacet
  facet normal 0 0 1
    outer loop
      vertex 44.9878 54.6021 5
      vertex 55 58 5
      vertex 54 65 5
    endloop
  endfacet
  facet normal 0 0 1
    outer loop
      vertex 59.5 55.4019 5
      vertex 52.7984 47.9313 5
      vertex 54.6021 44.9878 5
    endloop
  endfacet
  facet normal -0 0 1
    outer loop
      vertex 62 65 5
      vertex 70 60.9 5
      vertex 70 70 5
    endloop
  endfacet
  facet normal 0 0 1
    outer loop
      vertex 61 58 5
      vertex 70 60.9 5
      vertex 62 65 5
    endloop
  endfacet
  facet normal -0 0 1
    outer loop
      vertex 59.5 55.4019 5
      vertex 70 55.1 5
      vertex 61 58 5
    endloop
  endfacet
  facet normal 0 -0 1
    outer loop
      vertex 57 35 5
      vertex 70 55.1 5
      vertex 56.7291 38.4416 5
    endloop
  endfacet
  facet normal 0 0 1
    outer loop
      vertex 70 60.9 5
      vertex 61 58 5
      vertex 70 55.1 5
    endloop
  endfacet
  facet normal 0 -0 1
    outer loop
      vertex 62 65 5
      vertex 70 70 5
      vertex 61 70 5
    endloop
  endfacet
  facet normal -0 0 1
    outer loop
      vertex 70 60.9 5
      vertex 75 54.1 5
      vertex 75 61.9 5
    endloop
  endfacet
  facet normal 0 0 1
    outer loop
      vertex 75 54.1 5
      vertex 70 60.9 5
      vertex 70 55.1 5
    endloop
  endfacet
  facet normal -0 0 1
    outer loop
      vertex 65 8 5
      vertex 70 0 5
      vertex 70 9 5
    endloop
  endfacet
  facet normal 0 0 1
    outer loop
      vertex 56.7291 38.4416 5
      vertex 70 55.1 5
      vertex 59.5 55.4019 5
    endloop
  endfacet
  facet normal 0 0 1
    outer loop
      vertex 65 16 5
      vertex 61 12 5
      vertex 65 8 5
    endloop
  endfacet
  facet normal -0 0 1
    outer loop
      vertex 59.5 9.40192 5
      vertex 65 8 5
      vertex 61 12 5
    endloop
  endfacet
  facet normal 0 -0 1
    outer loop
      vertex 60.9 0 5
      vertex 65 8 5
      vertex 59.5 9.40192 5
    endloop
  endfacet
  facet normal 0 0 1
    outer loop
      vertex 65 8 5
      vertex 60.9 0 5
      vertex 70 0 5
    endloop
  endfacet
  facet normal -0 0 1
    outer loop
      vertex 56.5 9.40192 5
      vertex 60.9 0 5
      vertex 59.5 9.40192 5
    endloop
  endfacet
  facet normal 0 0 1
    outer loop
      vertex 55.1 0 5
      vertex 60.9 0 5
      vertex 56.5 9.40192 5
    endloop
  endfacet
  facet normal 0 0 1
    outer loop
      vertex 60.9 0 5
      vertex 55.1 0 5
      vertex 61.9 -5 5
    endloop
  endfacet
  facet normal 0 0 1
    outer loop
      vertex 61.9 -5 5
      vertex 55.1 0 5
      vertex 54.1 -5 5
    endloop
  endfacet
  facet normal 0 0 1
    outer loop
      vertex 0 9.1 5
      vertex 9 12 5
      vertex 0 14.9 5
    endloop
  endfacet
  facet normal 0 0 1
    outer loop
      vertex 9 12 5
      vertex 0 9.1 5
      vertex 8 5 5
    endloop
  endfacet
  facet normal 0 0 1
    outer loop
      vertex 0 0 5
      vertex 8 5 5
      vertex 0 9.1 5
    endloop
  endfacet
  facet normal 0 0 1
    outer loop
      vertex 8 5 5
      vertex 0 0 5
      vertex 9 0 5
    endloop
  endfacet
  facet normal 0 0 1
    outer loop
      vertex -5 15.9 5
      vertex 0 9.1 5
      vertex 0 14.9 5
    endloop
  endfacet
  facet normal 0 0 1
    outer loop
      vertex 0 9.1 5
      vertex -5 15.9 5
      vertex -5 8.1 5
    endloop
  endfacet
  facet normal 0 0 1
    outer loop
      vertex 14.9 70 5
      vertex 10.5 60.5981 5
      vertex 13.5 60.5981 5
    endloop
  endfacet
  facet normal 0 0 1
    outer loop
      vertex 9.1 70 5
      vertex 14.9 70 5
      vertex 15.9 75 5
    endloop
  endfacet
  facet normal 0 0 1
    outer loop
      vertex 14.9 70 5
      vertex 9.1 70 5
      vertex 10.5 60.5981 5
    endloop
  endfacet
  facet normal 0 -0 1
    outer loop
      vertex 9.1 70 5
      vertex 15.9 75 5
      vertex 8.1 75 5
    endloop
  endfacet
  facet normal 0 0 1
    outer loop
      vertex 25.0122 15.3979 5
      vertex 15 12 5
      vertex 16 5 5
    endloop
  endfacet
  facet normal 0 0 1
    outer loop
      vertex 17.2016 22.0687 5
      vertex 13.5 14.5981 5
      vertex 15 12 5
    endloop
  endfacet
  facet normal 0 0 1
    outer loop
      vertex 17.2016 22.0687 5
      vertex 10.5 14.5981 5
      vertex 13.5 14.5981 5
    endloop
  endfacet
  facet normal 0 0 1
    outer loop
      vertex 10.5 14.5981 5
      vertex 0 14.9 5
      vertex 9 12 5
    endloop
  endfacet
  facet normal -0 0 1
    outer loop
      vertex 0 14.9 5
      vertex 10.5 14.5981 5
      vertex 0 24 5
    endloop
  endfacet
  facet normal -0 0 1
    outer loop
      vertex 0 24 5
      vertex 10.5 14.5981 5
      vertex 16.0181 24 5
    endloop
  endfacet
  facet normal 0 0 1
    outer loop
      vertex 56.5 55.4019 5
      vertex 50.5564 50.5564 5
      vertex 52.7984 47.9313 5
    endloop
  endfacet
  facet normal 0 0 1
    outer loop
      vertex 38.4416 56.7291 5
      vertex 54 65 5
      vertex 55 70 5
    endloop
  endfacet
  facet normal 0 0 1
    outer loop
      vertex 55 58 5
      vertex 47.9313 52.7984 5
      vertex 50.5564 50.5564 5
    endloop
  endfacet
  facet normal 0 0 1
    outer loop
      vertex 55 58 5
      vertex 44.9878 54.6021 5
      vertex 47.9313 52.7984 5
    endloop
  endfacet
  facet normal 0 0 1
    outer loop
      vertex 54 65 5
      vertex 41.7984 55.9232 5
      vertex 44.9878 54.6021 5
    endloop
  endfacet
  facet normal 0 0 1
    outer loop
      vertex 54 65 5
      vertex 38.4416 56.7291 5
      vertex 41.7984 55.9232 5
    endloop
  endfacet
  facet normal 0 0 1
    outer loop
      vertex 55 70 5
      vertex 35 57 5
      vertex 38.4416 56.7291 5
    endloop
  endfacet
  facet normal -0 0 1
    outer loop
      vertex 14.9 70 5
      vertex 35 57 5
      vertex 55 70 5
    endloop
  endfacet
  facet normal 0 0 1
    outer loop
      vertex 35 57 5
      vertex 14.9 70 5
      vertex 31.5584 56.7291 5
    endloop
  endfacet
  facet normal 0 0 1
    outer loop
      vertex 31.5584 56.7291 5
      vertex 14.9 70 5
      vertex 28.2016 55.9232 5
    endloop
  endfacet
  facet normal 0 0 1
    outer loop
      vertex 19.4436 50.5564 5
      vertex 13.5 55.4019 5
      vertex 17.2016 47.9313 5
    endloop
  endfacet
  facet normal -0 0 1
    outer loop
      vertex 13.5 55.4019 5
      vertex 19.4436 50.5564 5
      vertex 15 58 5
    endloop
  endfacet
  facet normal 0 0 1
    outer loop
      vertex 22.0687 52.7984 5
      vertex 15 58 5
      vertex 19.4436 50.5564 5
    endloop
  endfacet
  facet normal 0 0 1
    outer loop
      vertex 25.0122 54.6021 5
      vertex 15 58 5
      vertex 22.0687 52.7984 5
    endloop
  endfacet
  facet normal 0 0 1
    outer loop
      vertex 28.2016 55.9232 5
      vertex 14.9 70 5
      vertex 25.0122 54.6021 5
    endloop
  endfacet
  facet normal 0 0 1
    outer loop
      vertex 25.0122 54.6021 5
      vertex 14.9 70 5
      vertex 15 58 5
    endloop
  endfacet
  facet normal 0 0 1
    outer loop
      vertex 15 58 5
      vertex 14.9 70 5
      vertex 13.5 60.5981 5
    endloop
  endfacet
  facet normal -0 0 1
    outer loop
      vertex 10.5 55.4019 5
      vertex 17.2016 47.9313 5
      vertex 13.5 55.4019 5
    endloop
  endfacet
  facet normal 0 0 1
    outer loop
      vertex 17.2016 47.9313 5
      vertex 10.5 55.4019 5
      vertex 16.0181 46 5
    endloop
  endfacet
  facet normal 0 0 1
    outer loop
      vertex 5 54 5
      vertex 9 58 5
      vertex 5 62 5
    endloop
  endfacet
  facet normal 0 0 1
    outer loop
      vertex 9 58 5
      vertex 5 54 5
      vertex 10.5 55.4019 5
    endloop
  endfacet
  facet normal 0 0 1
    outer loop
      vertex 10.5 55.4019 5
      vertex 5 54 5
      vertex 16.0181 46 5
    endloop
  endfacet
  facet normal 0 0 1
    outer loop
      vertex 0 46 5
      vertex 5 54 5
      vertex 0 55 5
    endloop
  endfacet
  facet normal 0 0 1
    outer loop
      vertex 5 54 5
      vertex 0 46 5
      vertex 16.0181 46 5
    endloop
  endfacet
  facet normal -0 0 1
    outer loop
      vertex 13.5 9.40192 5
      vertex 16 5 5
      vertex 15 12 5
    endloop
  endfacet
  facet normal -0 0 1
    outer loop
      vertex 10.5 9.40192 5
      vertex 16 5 5
      vertex 13.5 9.40192 5
    endloop
  endfacet
  facet normal 0 0 1
    outer loop
      vertex 10.5 9.40192 5
      vertex 8 5 5
      vertex 16 5 5
    endloop
  endfacet
  facet normal 0 0 1
    outer loop
      vertex 8 5 5
      vertex 10.5 9.40192 5
      vertex 9 12 5
    endloop
  endfacet
  facet normal -0 0 1
    outer loop
      vertex 5 62 5
      vertex 10.5 60.5981 5
      vertex 9.1 70 5
    endloop
  endfacet
  facet normal 0 0 1
    outer loop
      vertex 10.5 60.5981 5
      vertex 5 62 5
      vertex 9 58 5
    endloop
  endfacet
  facet normal -0 0 1
    outer loop
      vertex 0 70 5
      vertex 5 62 5
      vertex 9.1 70 5
    endloop
  endfacet
  facet normal 0 0 1
    outer loop
      vertex 5 62 5
      vertex 0 70 5
      vertex 0 61 5
    endloop
  endfacet
  facet normal 0 0 1
    outer loop
      vertex 55 12 5
      vertex 55.1 0 5
      vertex 56.5 9.40192 5
    endloop
  endfacet
  facet normal -0 0 1
    outer loop
      vertex 50.5564 19.4436 5
      vertex 56.5 14.5981 5
      vertex 52.7984 22.0687 5
    endloop
  endfacet
  facet normal 0 0 1
    outer loop
      vertex 56.5 14.5981 5
      vertex 50.5564 19.4436 5
      vertex 55 12 5
    endloop
  endfacet
  facet normal -0 0 1
    outer loop
      vertex 47.9313 17.2016 5
      vertex 55 12 5
      vertex 50.5564 19.4436 5
    endloop
  endfacet
  facet normal -0 0 1
    outer loop
      vertex 44.9878 15.3979 5
      vertex 55 12 5
      vertex 47.9313 17.2016 5
    endloop
  endfacet
  facet normal 0 0 1
    outer loop
      vertex 55 12 5
      vertex 44.9878 15.3979 5
      vertex 55.1 0 5
    endloop
  endfacet
  facet normal -0 0 1
    outer loop
      vertex 41.7984 14.0768 5
      vertex 55.1 0 5
      vertex 44.9878 15.3979 5
    endloop
  endfacet
  facet normal -0 0 1
    outer loop
      vertex 38.4416 13.2709 5
      vertex 55.1 0 5
      vertex 41.7984 14.0768 5
    endloop
  endfacet
  facet normal -0 0 1
    outer loop
      vertex 35 13 5
      vertex 55.1 0 5
      vertex 38.4416 13.2709 5
    endloop
  endfacet
  facet normal 0 0 1
    outer loop
      vertex 15 0 5
      vertex 35 13 5
      vertex 31.5584 13.2709 5
    endloop
  endfacet
  facet normal 0 0 1
    outer loop
      vertex 16 5 5
      vertex 31.5584 13.2709 5
      vertex 28.2016 14.0768 5
    endloop
  endfacet
  facet normal 0 0 1
    outer loop
      vertex 16 5 5
      vertex 28.2016 14.0768 5
      vertex 25.0122 15.3979 5
    endloop
  endfacet
  facet normal 0 0 1
    outer loop
      vertex 10.5 14.5981 5
      vertex 17.2016 22.0687 5
      vertex 16.0181 24 5
    endloop
  endfacet
  facet normal 0 0 1
    outer loop
      vertex 15 12 5
      vertex 19.4436 19.4436 5
      vertex 17.2016 22.0687 5
    endloop
  endfacet
  facet normal 0 0 1
    outer loop
      vertex 15 12 5
      vertex 22.0687 17.2016 5
      vertex 19.4436 19.4436 5
    endloop
  endfacet
  facet normal 0 0 1
    outer loop
      vertex 15 12 5
      vertex 25.0122 15.3979 5
      vertex 22.0687 17.2016 5
    endloop
  endfacet
  facet normal 0 0 1
    outer loop
      vertex 31.5584 13.2709 5
      vertex 16 5 5
      vertex 15 0 5
    endloop
  endfacet
  facet normal 0 0 1
    outer loop
      vertex 35 13 5
      vertex 15 0 5
      vertex 55.1 0 5
    endloop
  endfacet
  facet normal 0 0 1
    outer loop
      vertex 65 16 5
      vertex 59.5 14.5981 5
      vertex 61 12 5
    endloop
  endfacet
  facet normal -0 0 1
    outer loop
      vertex 54.6021 25.0122 5
      vertex 65 16 5
      vertex 55.9232 28.2016 5
    endloop
  endfacet
  facet normal 0 0 1
    outer loop
      vertex 65 16 5
      vertex 54.6021 25.0122 5
      vertex 59.5 14.5981 5
    endloop
  endfacet
  facet normal -0 0 1
    outer loop
      vertex 52.7984 22.0687 5
      vertex 59.5 14.5981 5
      vertex 54.6021 25.0122 5
    endloop
  endfacet
  facet normal 0 0 1
    outer loop
      vertex 59.5 14.5981 5
      vertex 52.7984 22.0687 5
      vertex 56.5 14.5981 5
    endloop
  endfacet
  facet normal 1 -0 0
    outer loop
      vertex 70 0 5
      vertex 70 9 0
      vertex 70 9 5
    endloop
  endfacet
  facet normal 1 0 0
    outer loop
      vertex 70 9 0
      vertex 70 0 5
      vertex 70 0 0
    endloop
  endfacet
  facet normal 1 -0 0
    outer loop
      vertex 70 60.9 5
      vertex 70 70 0
      vertex 70 70 5
    endloop
  endfacet
  facet normal 1 0 0
    outer loop
      vertex 70 70 0
      vertex 70 60.9 5
      vertex 70 60.9 0
    endloop
  endfacet
  facet normal 1 -0 0
    outer loop
      vertex 70 15 5
      vertex 70 55.1 0
      vertex 70 55.1 5
    endloop
  endfacet
  facet normal 1 0 0
    outer loop
      vertex 70 55.1 0
      vertex 70 15 5
      vertex 70 15 0
    endloop
  endfacet
  facet normal 0 1 -0
    outer loop
      vertex 70 70 0
      vertex 61 70 5
      vertex 70 70 5
    endloop
  endfacet
  facet normal 0 1 0
    outer loop
      vertex 61 70 5
      vertex 70 70 0
      vertex 61 70 0
    endloop
  endfacet
  facet normal 0 1 -0
    outer loop
      vertex 9.1 70 0
      vertex 0 70 5
      vertex 9.1 70 5
    endloop
  endfacet
  facet normal 0 1 0
    outer loop
      vertex 0 70 5
      vertex 9.1 70 0
      vertex 0 70 0
    endloop
  endfacet
  facet normal 0 1 -0
    outer loop
      vertex 55 70 0
      vertex 14.9 70 5
      vertex 55 70 5
    endloop
  endfacet
  facet normal 0 1 0
    outer loop
      vertex 14.9 70 5
      vertex 55 70 0
      vertex 14.9 70 0
    endloop
  endfacet
  facet normal 0 0 -1
    outer loop
      vertex 13.5 55.4019 0
      vertex 56.5 55.4019 0
      vertex 13.5 14.5981 0
    endloop
  endfacet
  facet normal 0 0 -1
    outer loop
      vertex 56.5 55.4019 0
      vertex 13.5 55.4019 0
      vertex 15 58 0
    endloop
  endfacet
  facet normal 0 0 -1
    outer loop
      vertex 5 54 0
      vertex 13.5 14.5981 0
      vertex 10.5 14.5981 0
    endloop
  endfacet
  facet normal 0 0 -1
    outer loop
      vertex 13.5 14.5981 0
      vertex 5 54 0
      vertex 13.5 55.4019 0
    endloop
  endfacet
  facet normal 0 0 -1
    outer loop
      vertex 0 14.9 0
      vertex 10.5 14.5981 0
      vertex 9 12 0
    endloop
  endfacet
  facet normal -0 0 -1
    outer loop
      vertex 13.5 55.4019 0
      vertex 5 54 0
      vertex 10.5 55.4019 0
    endloop
  endfacet
  facet normal 0 0 -1
    outer loop
      vertex 16 5 0
      vertex 13.5 9.40192 0
      vertex 15 12 0
    endloop
  endfacet
  facet normal 0 0 -1
    outer loop
      vertex 16 5 0
      vertex 10.5 9.40192 0
      vertex 13.5 9.40192 0
    endloop
  endfacet
  facet normal 0 0 -1
    outer loop
      vertex 0 9.1 0
      vertex 9 12 0
      vertex 8 5 0
    endloop
  endfacet
  facet normal -0 0 -1
    outer loop
      vertex 10.5 9.40192 0
      vertex 8 5 0
      vertex 9 12 0
    endloop
  endfacet
  facet normal 0 0 -1
    outer loop
      vertex 8 5 0
      vertex 10.5 9.40192 0
      vertex 16 5 0
    endloop
  endfacet
  facet normal 0 0 -1
    outer loop
      vertex 60.9 0 0
      vertex 56.5 9.40192 0
      vertex 59.5 9.40192 0
    endloop
  endfacet
  facet normal 0 0 -1
    outer loop
      vertex 55.1 0 0
      vertex 60.9 0 0
      vertex 61.9 -5 0
    endloop
  endfacet
  facet normal 0 0 -1
    outer loop
      vertex 60.9 0 0
      vertex 55.1 0 0
      vertex 56.5 9.40192 0
    endloop
  endfacet
  facet normal 0 -0 -1
    outer loop
      vertex 55.1 0 0
      vertex 61.9 -5 0
      vertex 54.1 -5 0
    endloop
  endfacet
  facet normal 0 0 -1
    outer loop
      vertex 56.5 14.5981 0
      vertex 65 16 0
      vertex 59.5 14.5981 0
    endloop
  endfacet
  facet normal 0 0 -1
    outer loop
      vertex 65 16 0
      vertex 59.5 55.4019 0
      vertex 61 58 0
    endloop
  endfacet
  facet normal 0 0 -1
    outer loop
      vertex 56.5 55.4019 0
      vertex 65 16 0
      vertex 56.5 14.5981 0
    endloop
  endfacet
  facet normal 0 0 -1
    outer loop
      vertex 65 16 0
      vertex 56.5 55.4019 0
      vertex 59.5 55.4019 0
    endloop
  endfacet
  facet normal 0 0 -1
    outer loop
      vertex 15 12 0
      vertex 56.5 14.5981 0
      vertex 55 12 0
    endloop
  endfacet
  facet normal 0 0 -1
    outer loop
      vertex 13.5 14.5981 0
      vertex 56.5 14.5981 0
      vertex 15 12 0
    endloop
  endfacet
  facet normal 0 0 -1
    outer loop
      vertex 70 0 0
      vertex 65 8 0
      vertex 70 9 0
    endloop
  endfacet
  facet normal 0 0 -1
    outer loop
      vertex 61 12 0
      vertex 65 16 0
      vertex 65 8 0
    endloop
  endfacet
  facet normal 0 0 -1
    outer loop
      vertex 59.5 14.5981 0
      vertex 65 16 0
      vertex 61 12 0
    endloop
  endfacet
  facet normal 0 0 -1
    outer loop
      vertex 60.9 0 0
      vertex 65 8 0
      vertex 70 0 0
    endloop
  endfacet
  facet normal -0 0 -1
    outer loop
      vertex 65 8 0
      vertex 60.9 0 0
      vertex 59.5 9.40192 0
    endloop
  endfacet
  facet normal 0 0 -1
    outer loop
      vertex 65 8 0
      vertex 59.5 9.40192 0
      vertex 61 12 0
    endloop
  endfacet
  facet normal 0 0 -1
    outer loop
      vertex 65 16 0
      vertex 70 55.1 0
      vertex 70 15 0
    endloop
  endfacet
  facet normal 0 0 -1
    outer loop
      vertex 62 65 0
      vertex 70 55.1 0
      vertex 65 16 0
    endloop
  endfacet
  facet normal 0 0 -1
    outer loop
      vertex 70 55.1 0
      vertex 62 65 0
      vertex 70 60.9 0
    endloop
  endfacet
  facet normal 0 0 -1
    outer loop
      vertex 70 60.9 0
      vertex 62 65 0
      vertex 70 70 0
    endloop
  endfacet
  facet normal -0 0 -1
    outer loop
      vertex 70 70 0
      vertex 62 65 0
      vertex 61 70 0
    endloop
  endfacet
  facet normal 0 0 -1
    outer loop
      vertex 70 55.1 0
      vertex 75 61.9 0
      vertex 75 54.1 0
    endloop
  endfacet
  facet normal 0 0 -1
    outer loop
      vertex 75 61.9 0
      vertex 70 55.1 0
      vertex 70 60.9 0
    endloop
  endfacet
  facet normal 0 0 -1
    outer loop
      vertex 65 16 0
      vertex 61 58 0
      vertex 62 65 0
    endloop
  endfacet
  facet normal 0 0 -1
    outer loop
      vertex 59.5 60.5981 0
      vertex 62 65 0
      vertex 61 58 0
    endloop
  endfacet
  facet normal 0 0 -1
    outer loop
      vertex 56.5 60.5981 0
      vertex 62 65 0
      vertex 59.5 60.5981 0
    endloop
  endfacet
  facet normal 0 0 -1
    outer loop
      vertex 56.5 60.5981 0
      vertex 54 65 0
      vertex 62 65 0
    endloop
  endfacet
  facet normal 0 0 -1
    outer loop
      vertex 54 65 0
      vertex 56.5 60.5981 0
      vertex 55 58 0
    endloop
  endfacet
  facet normal 0 0 -1
    outer loop
      vertex 55.1 0 0
      vertex 55 12 0
      vertex 56.5 9.40192 0
    endloop
  endfacet
  facet normal 0 0 -1
    outer loop
      vertex 56.5 55.4019 0
      vertex 15 58 0
      vertex 55 58 0
    endloop
  endfacet
  facet normal 0 0 -1
    outer loop
      vertex 16 5 0
      vertex 55 12 0
      vertex 55.1 0 0
    endloop
  endfacet
  facet normal -0 0 -1
    outer loop
      vertex 55 12 0
      vertex 16 5 0
      vertex 15 12 0
    endloop
  endfacet
  facet normal 0 -0 -1
    outer loop
      vertex 16 5 0
      vertex 55.1 0 0
      vertex 15 0 0
    endloop
  endfacet
  facet normal 0 0 -1
    outer loop
      vertex 56.5 14.5981 0
      vertex 13.5 14.5981 0
      vertex 56.5 55.4019 0
    endloop
  endfacet
  facet normal 0 0 -1
    outer loop
      vertex 55 58 0
      vertex 15 58 0
      vertex 54 65 0
    endloop
  endfacet
  facet normal 0 0 -1
    outer loop
      vertex 14.9 70 0
      vertex 54 65 0
      vertex 15 58 0
    endloop
  endfacet
  facet normal 0 0 -1
    outer loop
      vertex 54 65 0
      vertex 14.9 70 0
      vertex 55 70 0
    endloop
  endfacet
  facet normal 0 -0 -1
    outer loop
      vertex 14.9 70 0
      vertex 15 58 0
      vertex 13.5 60.5981 0
    endloop
  endfacet
  facet normal 0 0 -1
    outer loop
      vertex 10.5 60.5981 0
      vertex 14.9 70 0
      vertex 13.5 60.5981 0
    endloop
  endfacet
  facet normal 0 0 -1
    outer loop
      vertex 9.1 70 0
      vertex 14.9 70 0
      vertex 10.5 60.5981 0
    endloop
  endfacet
  facet normal 0 0 -1
    outer loop
      vertex 14.9 70 0
      vertex 9.1 70 0
      vertex 15.9 75 0
    endloop
  endfacet
  facet normal -0 0 -1
    outer loop
      vertex 15.9 75 0
      vertex 9.1 70 0
      vertex 8.1 75 0
    endloop
  endfacet
  facet normal 0 0 -1
    outer loop
      vertex -5 8.1 0
      vertex 0 14.9 0
      vertex 0 9.1 0
    endloop
  endfacet
  facet normal -0 0 -1
    outer loop
      vertex 0 14.9 0
      vertex -5 8.1 0
      vertex -5 15.9 0
    endloop
  endfacet
  facet normal 0 0 -1
    outer loop
      vertex 0 0 0
      vertex 8 5 0
      vertex 9 0 0
    endloop
  endfacet
  facet normal 0 0 -1
    outer loop
      vertex 0 9.1 0
      vertex 8 5 0
      vertex 0 0 0
    endloop
  endfacet
  facet normal -0 0 -1
    outer loop
      vertex 9 12 0
      vertex 0 9.1 0
      vertex 0 14.9 0
    endloop
  endfacet
  facet normal 0 0 -1
    outer loop
      vertex 10.5 14.5981 0
      vertex 0 14.9 0
      vertex 5 54 0
    endloop
  endfacet
  facet normal -0 0 -1
    outer loop
      vertex 5 54 0
      vertex 0 14.9 0
      vertex 0 55 0
    endloop
  endfacet
  facet normal 0 0 -1
    outer loop
      vertex 5 62 0
      vertex 10.5 60.5981 0
      vertex 9 58 0
    endloop
  endfacet
  facet normal -0 0 -1
    outer loop
      vertex 10.5 55.4019 0
      vertex 5 54 0
      vertex 9 58 0
    endloop
  endfacet
  facet normal 0 0 -1
    outer loop
      vertex 5 62 0
      vertex 9 58 0
      vertex 5 54 0
    endloop
  endfacet
  facet normal 0 0 -1
    outer loop
      vertex 10.5 60.5981 0
      vertex 5 62 0
      vertex 9.1 70 0
    endloop
  endfacet
  facet normal 0 0 -1
    outer loop
      vertex 0 70 0
      vertex 5 62 0
      vertex 0 61 0
    endloop
  endfacet
  facet normal 0 0 -1
    outer loop
      vertex 5 62 0
      vertex 0 70 0
      vertex 9.1 70 0
    endloop
  endfacet
  facet normal 0 -1 0
    outer loop
      vertex 0 0 0
      vertex 9 0 5
      vertex 0 0 5
    endloop
  endfacet
  facet normal 0 -1 -0
    outer loop
      vertex 9 0 5
      vertex 0 0 0
      vertex 9 0 0
    endloop
  endfacet
  facet normal 0 -1 0
    outer loop
      vertex 60.9 0 0
      vertex 70 0 5
      vertex 60.9 0 5
    endloop
  endfacet
  facet normal 0 -1 -0
    outer loop
      vertex 70 0 5
      vertex 60.9 0 0
      vertex 70 0 0
    endloop
  endfacet
  facet normal 0 -1 0
    outer loop
      vertex 15 0 0
      vertex 55.1 0 5
      vertex 15 0 5
    endloop
  endfacet
  facet normal 0 -1 -0
    outer loop
      vertex 55.1 0 5
      vertex 15 0 0
      vertex 55.1 0 0
    endloop
  endfacet
  facet normal -0.980581 0.196116 0
    outer loop
      vertex 15 0 0
      vertex 16 5 5
      vertex 16 5 0
    endloop
  endfacet
  facet normal -0.980581 0.196116 0
    outer loop
      vertex 16 5 5
      vertex 15 0 0
      vertex 15 0 5
    endloop
  endfacet
  facet normal 0 -1 0
    outer loop
      vertex 8 5 0
      vertex 16 5 5
      vertex 8 5 5
    endloop
  endfacet
  facet normal 0 -1 -0
    outer loop
      vertex 16 5 5
      vertex 8 5 0
      vertex 16 5 0
    endloop
  endfacet
  facet normal 0.980581 0.196116 0
    outer loop
      vertex 9 0 5
      vertex 8 5 0
      vertex 8 5 5
    endloop
  endfacet
  facet normal 0.980581 0.196116 0
    outer loop
      vertex 8 5 0
      vertex 9 0 5
      vertex 9 0 0
    endloop
  endfacet
  facet normal -0.980581 -0.196116 0
    outer loop
      vertex 62 65 0
      vertex 61 70 5
      vertex 61 70 0
    endloop
  endfacet
  facet normal -0.980581 -0.196116 0
    outer loop
      vertex 61 70 5
      vertex 62 65 0
      vertex 62 65 5
    endloop
  endfacet
  facet normal 0.980581 -0.196116 0
    outer loop
      vertex 54 65 5
      vertex 55 70 0
      vertex 55 70 5
    endloop
  endfacet
  facet normal 0.980581 -0.196116 0
    outer loop
      vertex 55 70 0
      vertex 54 65 5
      vertex 54 65 0
    endloop
  endfacet
  facet normal 0 1 -0
    outer loop
      vertex 62 65 0
      vertex 54 65 5
      vertex 62 65 5
    endloop
  endfacet
  facet normal 0 1 0
    outer loop
      vertex 54 65 5
      vertex 62 65 0
      vertex 54 65 0
    endloop
  endfacet
  facet normal -0.196116 -0.980581 0
    outer loop
      vertex 65 16 0
      vertex 70 15 5
      vertex 65 16 5
    endloop
  endfacet
  facet normal -0.196116 -0.980581 -0
    outer loop
      vertex 70 15 5
      vertex 65 16 0
      vertex 70 15 0
    endloop
  endfacet
  facet normal 1 -0 0
    outer loop
      vertex 65 8 5
      vertex 65 16 0
      vertex 65 16 5
    endloop
  endfacet
  facet normal 1 0 0
    outer loop
      vertex 65 16 0
      vertex 65 8 5
      vertex 65 8 0
    endloop
  endfacet
  facet normal -0.196116 0.980581 0
    outer loop
      vertex 70 9 0
      vertex 65 8 5
      vertex 70 9 5
    endloop
  endfacet
  facet normal -0.196116 0.980581 0
    outer loop
      vertex 65 8 5
      vertex 70 9 0
      vertex 65 8 0
    endloop
  endfacet
  facet normal 0.196116 0.980581 -0
    outer loop
      vertex 5 54 0
      vertex 0 55 5
      vertex 5 54 5
    endloop
  endfacet
  facet normal 0.196116 0.980581 0
    outer loop
      vertex 0 55 5
      vertex 5 54 0
      vertex 0 55 0
    endloop
  endfacet
  facet normal 0.196116 -0.980581 0
    outer loop
      vertex 0 61 0
      vertex 5 62 5
      vertex 0 61 5
    endloop
  endfacet
  facet normal 0.196116 -0.980581 0
    outer loop
      vertex 5 62 5
      vertex 0 61 0
      vertex 5 62 0
    endloop
  endfacet
  facet normal -1 0 0
    outer loop
      vertex 5 54 0
      vertex 5 62 5
      vertex 5 62 0
    endloop
  endfacet
  facet normal -1 -0 0
    outer loop
      vertex 5 62 5
      vertex 5 54 0
      vertex 5 54 5
    endloop
  endfacet
  facet normal 0.980581 0.196116 0
    outer loop
      vertex 61.9 -5 5
      vertex 60.9 0 0
      vertex 60.9 0 5
    endloop
  endfacet
  facet normal 0.980581 0.196116 0
    outer loop
      vertex 60.9 0 0
      vertex 61.9 -5 5
      vertex 61.9 -5 0
    endloop
  endfacet
  facet normal -0.980581 0.196116 0
    outer loop
      vertex 54.1 -5 0
      vertex 55.1 0 5
      vertex 55.1 0 0
    endloop
  endfacet
  facet normal -0.980581 0.196116 0
    outer loop
      vertex 55.1 0 5
      vertex 54.1 -5 0
      vertex 54.1 -5 5
    endloop
  endfacet
  facet normal 0 -1 0
    outer loop
      vertex 54.1 -5 0
      vertex 61.9 -5 5
      vertex 54.1 -5 5
    endloop
  endfacet
  facet normal 0 -1 -0
    outer loop
      vertex 61.9 -5 5
      vertex 54.1 -5 0
      vertex 61.9 -5 0
    endloop
  endfacet
  facet normal 0.980581 -0.196116 0
    outer loop
      vertex 14.9 70 5
      vertex 15.9 75 0
      vertex 15.9 75 5
    endloop
  endfacet
  facet normal 0.980581 -0.196116 0
    outer loop
      vertex 15.9 75 0
      vertex 14.9 70 5
      vertex 14.9 70 0
    endloop
  endfacet
  facet normal 0 1 -0
    outer loop
      vertex 15.9 75 0
      vertex 8.1 75 5
      vertex 15.9 75 5
    endloop
  endfacet
  facet normal 0 1 0
    outer loop
      vertex 8.1 75 5
      vertex 15.9 75 0
      vertex 8.1 75 0
    endloop
  endfacet
  facet normal -0.980581 -0.196116 0
    outer loop
      vertex 9.1 70 0
      vertex 8.1 75 5
      vertex 8.1 75 0
    endloop
  endfacet
  facet normal -0.980581 -0.196116 0
    outer loop
      vertex 8.1 75 5
      vertex 9.1 70 0
      vertex 9.1 70 5
    endloop
  endfacet
  facet normal -0.196116 -0.980581 0
    outer loop
      vertex 70 55.1 0
      vertex 75 54.1 5
      vertex 70 55.1 5
    endloop
  endfacet
  facet normal -0.196116 -0.980581 -0
    outer loop
      vertex 75 54.1 5
      vertex 70 55.1 0
      vertex 75 54.1 0
    endloop
  endfacet
  facet normal -0.196116 0.980581 0
    outer loop
      vertex 75 61.9 0
      vertex 70 60.9 5
      vertex 75 61.9 5
    endloop
  endfacet
  facet normal -0.196116 0.980581 0
    outer loop
      vertex 70 60.9 5
      vertex 75 61.9 0
      vertex 70 60.9 0
    endloop
  endfacet
  facet normal 1 -0 0
    outer loop
      vertex 75 54.1 5
      vertex 75 61.9 0
      vertex 75 61.9 5
    endloop
  endfacet
  facet normal 1 0 0
    outer loop
      vertex 75 61.9 0
      vertex 75 54.1 5
      vertex 75 54.1 0
    endloop
  endfacet
  facet normal 0.196116 0.980581 -0
    outer loop
      vertex 0 14.9 0
      vertex -5 15.9 5
      vertex 0 14.9 5
    endloop
  endfacet
  facet normal 0.196116 0.980581 0
    outer loop
      vertex -5 15.9 5
      vertex 0 14.9 0
      vertex -5 15.9 0
    endloop
  endfacet
  facet normal -1 0 0
    outer loop
      vertex -5 8.1 0
      vertex -5 15.9 5
      vertex -5 15.9 0
    endloop
  endfacet
  facet normal -1 -0 0
    outer loop
      vertex -5 15.9 5
      vertex -5 8.1 0
      vertex -5 8.1 5
    endloop
  endfacet
  facet normal 0.196116 -0.980581 0
    outer loop
      vertex -5 8.1 0
      vertex 0 9.1 5
      vertex -5 8.1 5
    endloop
  endfacet
  facet normal 0.196116 -0.980581 0
    outer loop
      vertex 0 9.1 5
      vertex -5 8.1 0
      vertex 0 9.1 0
    endloop
  endfacet
  facet normal -0.866027 -0.499997 0
    outer loop
      vertex 15 12 0
      vertex 13.5 14.5981 5
      vertex 13.5 14.5981 0
    endloop
  endfacet
  facet normal -0.866027 -0.499997 0
    outer loop
      vertex 13.5 14.5981 5
      vertex 15 12 0
      vertex 15 12 5
    endloop
  endfacet
  facet normal 0 1 -0
    outer loop
      vertex 13.5 9.40192 0
      vertex 10.5 9.40192 5
      vertex 13.5 9.40192 5
    endloop
  endfacet
  facet normal 0 1 0
    outer loop
      vertex 10.5 9.40192 5
      vertex 13.5 9.40192 0
      vertex 10.5 9.40192 0
    endloop
  endfacet
  facet normal 0.866027 -0.499997 0
    outer loop
      vertex 9 12 5
      vertex 10.5 14.5981 0
      vertex 10.5 14.5981 5
    endloop
  endfacet
  facet normal 0.866027 -0.499997 0
    outer loop
      vertex 10.5 14.5981 0
      vertex 9 12 5
      vertex 9 12 0
    endloop
  endfacet
  facet normal 0 -1 0
    outer loop
      vertex 10.5 14.5981 0
      vertex 13.5 14.5981 5
      vertex 10.5 14.5981 5
    endloop
  endfacet
  facet normal 0 -1 -0
    outer loop
      vertex 13.5 14.5981 5
      vertex 10.5 14.5981 0
      vertex 13.5 14.5981 0
    endloop
  endfacet
  facet normal 0.866026 0.499999 0
    outer loop
      vertex 10.5 9.40192 5
      vertex 9 12 0
      vertex 9 12 5
    endloop
  endfacet
  facet normal 0.866026 0.499999 0
    outer loop
      vertex 9 12 0
      vertex 10.5 9.40192 5
      vertex 10.5 9.40192 0
    endloop
  endfacet
  facet normal -0.866026 0.499999 0
    outer loop
      vertex 13.5 9.40192 0
      vertex 15 12 5
      vertex 15 12 0
    endloop
  endfacet
  facet normal -0.866026 0.499999 0
    outer loop
      vertex 15 12 5
      vertex 13.5 9.40192 0
      vertex 13.5 9.40192 5
    endloop
  endfacet
  facet normal -0.866027 -0.499997 0
    outer loop
      vertex 61 12 0
      vertex 59.5 14.5981 5
      vertex 59.5 14.5981 0
    endloop
  endfacet
  facet normal -0.866027 -0.499997 0
    outer loop
      vertex 59.5 14.5981 5
      vertex 61 12 0
      vertex 61 12 5
    endloop
  endfacet
  facet normal 0 1 -0
    outer loop
      vertex 59.5 9.40192 0
      vertex 56.5 9.40192 5
      vertex 59.5 9.40192 5
    endloop
  endfacet
  facet normal 0 1 0
    outer loop
      vertex 56.5 9.40192 5
      vertex 59.5 9.40192 0
      vertex 56.5 9.40192 0
    endloop
  endfacet
  facet normal 0.866027 -0.499997 0
    outer loop
      vertex 55 12 5
      vertex 56.5 14.5981 0
      vertex 56.5 14.5981 5
    endloop
  endfacet
  facet normal 0.866027 -0.499997 0
    outer loop
      vertex 56.5 14.5981 0
      vertex 55 12 5
      vertex 55 12 0
    endloop
  endfacet
  facet normal 0 -1 0
    outer loop
      vertex 56.5 14.5981 0
      vertex 59.5 14.5981 5
      vertex 56.5 14.5981 5
    endloop
  endfacet
  facet normal 0 -1 -0
    outer loop
      vertex 59.5 14.5981 5
      vertex 56.5 14.5981 0
      vertex 59.5 14.5981 0
    endloop
  endfacet
  facet normal 0.866026 0.499999 0
    outer loop
      vertex 56.5 9.40192 5
      vertex 55 12 0
      vertex 55 12 5
    endloop
  endfacet
  facet normal 0.866026 0.499999 0
    outer loop
      vertex 55 12 0
      vertex 56.5 9.40192 5
      vertex 56.5 9.40192 0
    endloop
  endfacet
  facet normal -0.866026 0.499999 0
    outer loop
      vertex 59.5 9.40192 0
      vertex 61 12 5
      vertex 61 12 0
    endloop
  endfacet
  facet normal -0.866026 0.499999 0
    outer loop
      vertex 61 12 5
      vertex 59.5 9.40192 0
      vertex 59.5 9.40192 5
    endloop
  endfacet
  facet normal -0.866027 -0.499997 0
    outer loop
      vertex 61 58 0
      vertex 59.5 60.5981 5
      vertex 59.5 60.5981 0
    endloop
  endfacet
  facet normal -0.866027 -0.499997 0
    outer loop
      vertex 59.5 60.5981 5
      vertex 61 58 0
      vertex 61 58 5
    endloop
  endfacet
  facet normal 0 1 -0
    outer loop
      vertex 59.5 55.4019 0
      vertex 56.5 55.4019 5
      vertex 59.5 55.4019 5
    endloop
  endfacet
  facet normal 0 1 0
    outer loop
      vertex 56.5 55.4019 5
      vertex 59.5 55.4019 0
      vertex 56.5 55.4019 0
    endloop
  endfacet
  facet normal 0.866027 -0.499997 0
    outer loop
      vertex 55 58 5
      vertex 56.5 60.5981 0
      vertex 56.5 60.5981 5
    endloop
  endfacet
  facet normal 0.866027 -0.499997 0
    outer loop
      vertex 56.5 60.5981 0
      vertex 55 58 5
      vertex 55 58 0
    endloop
  endfacet
  facet normal 0 -1 0
    outer loop
      vertex 56.5 60.5981 0
      vertex 59.5 60.5981 5
      vertex 56.5 60.5981 5
    endloop
  endfacet
  facet normal 0 -1 -0
    outer loop
      vertex 59.5 60.5981 5
      vertex 56.5 60.5981 0
      vertex 59.5 60.5981 0
    endloop
  endfacet
  facet normal 0.866027 0.499997 0
    outer loop
      vertex 56.5 55.4019 5
      vertex 55 58 0
      vertex 55 58 5
    endloop
  endfacet
  facet normal 0.866027 0.499997 0
    outer loop
      vertex 55 58 0
      vertex 56.5 55.4019 5
      vertex 56.5 55.4019 0
    endloop
  endfacet
  facet normal -0.866027 0.499997 0
    outer loop
      vertex 59.5 55.4019 0
      vertex 61 58 5
      vertex 61 58 0
    endloop
  endfacet
  facet normal -0.866027 0.499997 0
    outer loop
      vertex 61 58 5
      vertex 59.5 55.4019 0
      vertex 59.5 55.4019 5
    endloop
  endfacet
  facet normal -0.866027 -0.499997 0
    outer loop
      vertex 15 58 0
      vertex 13.5 60.5981 5
      vertex 13.5 60.5981 0
    endloop
  endfacet
  facet normal -0.866027 -0.499997 0
    outer loop
      vertex 13.5 60.5981 5
      vertex 15 58 0
      vertex 15 58 5
    endloop
  endfacet
  facet normal 0 1 -0
    outer loop
      vertex 13.5 55.4019 0
      vertex 10.5 55.4019 5
      vertex 13.5 55.4019 5
    endloop
  endfacet
  facet normal 0 1 0
    outer loop
      vertex 10.5 55.4019 5
      vertex 13.5 55.4019 0
      vertex 10.5 55.4019 0
    endloop
  endfacet
  facet normal 0.866027 -0.499997 0
    outer loop
      vertex 9 58 5
      vertex 10.5 60.5981 0
      vertex 10.5 60.5981 5
    endloop
  endfacet
  facet normal 0.866027 -0.499997 0
    outer loop
      vertex 10.5 60.5981 0
      vertex 9 58 5
      vertex 9 58 0
    endloop
  endfacet
  facet normal 0 -1 0
    outer loop
      vertex 10.5 60.5981 0
      vertex 13.5 60.5981 5
      vertex 10.5 60.5981 5
    endloop
  endfacet
  facet normal 0 -1 -0
    outer loop
      vertex 13.5 60.5981 5
      vertex 10.5 60.5981 0
      vertex 13.5 60.5981 0
    endloop
  endfacet
  facet normal 0.866027 0.499997 0
    outer loop
      vertex 10.5 55.4019 5
      vertex 9 58 0
      vertex 9 58 5
    endloop
  endfacet
  facet normal 0.866027 0.499997 0
    outer loop
      vertex 9 58 0
      vertex 10.5 55.4019 5
      vertex 10.5 55.4019 0
    endloop
  endfacet
  facet normal -0.866027 0.499997 0
    outer loop
      vertex 13.5 55.4019 0
      vertex 15 58 5
      vertex 15 58 0
    endloop
  endfacet
  facet normal -0.866027 0.499997 0
    outer loop
      vertex 15 58 5
      vertex 13.5 55.4019 0
      vertex 13.5 55.4019 5
    endloop
  endfacet
  facet normal -0.996916 -0.0784707 0
    outer loop
      vertex 57 35 3
      vertex 56.7291 38.4416 5
      vertex 56.7291 38.4416 3
    endloop
  endfacet
  facet normal -0.996916 -0.0784707 0
    outer loop
      vertex 56.7291 38.4416 5
      vertex 57 35 3
      vertex 57 35 5
    endloop
  endfacet
  facet normal 0.0784707 -0.996916 0
    outer loop
      vertex 31.5584 56.7291 3
      vertex 35 57 5
      vertex 31.5584 56.7291 5
    endloop
  endfacet
  facet normal 0.0784707 -0.996916 0
    outer loop
      vertex 35 57 5
      vertex 31.5584 56.7291 3
      vertex 35 57 3
    endloop
  endfacet
  facet normal 0.64944 0.760413 -0
    outer loop
      vertex 22.0687 17.2016 3
      vertex 19.4436 19.4436 5
      vertex 22.0687 17.2016 5
    endloop
  endfacet
  facet normal 0.64944 0.760413 0
    outer loop
      vertex 19.4436 19.4436 5
      vertex 22.0687 17.2016 3
      vertex 19.4436 19.4436 3
    endloop
  endfacet
  facet normal -0.64944 -0.760413 0
    outer loop
      vertex 47.9313 52.7984 3
      vertex 50.5564 50.5564 5
      vertex 47.9313 52.7984 5
    endloop
  endfacet
  facet normal -0.64944 -0.760413 -0
    outer loop
      vertex 50.5564 50.5564 5
      vertex 47.9313 52.7984 3
      vertex 50.5564 50.5564 3
    endloop
  endfacet
  facet normal 0.760413 -0.64944 0
    outer loop
      vertex 17.2016 47.9313 5
      vertex 19.4436 50.5564 3
      vertex 19.4436 50.5564 5
    endloop
  endfacet
  facet normal 0.760413 -0.64944 0
    outer loop
      vertex 19.4436 50.5564 3
      vertex 17.2016 47.9313 5
      vertex 17.2016 47.9313 3
    endloop
  endfacet
  facet normal 0.522482 -0.85265 0
    outer loop
      vertex 22.0687 52.7984 3
      vertex 25.0122 54.6021 5
      vertex 22.0687 52.7984 5
    endloop
  endfacet
  facet normal 0.522482 -0.85265 0
    outer loop
      vertex 25.0122 54.6021 5
      vertex 22.0687 52.7984 3
      vertex 25.0122 54.6021 3
    endloop
  endfacet
  facet normal -0.85265 0.522482 0
    outer loop
      vertex 52.7984 22.0687 3
      vertex 54.6021 25.0122 5
      vertex 54.6021 25.0122 3
    endloop
  endfacet
  facet normal -0.85265 0.522482 0
    outer loop
      vertex 54.6021 25.0122 5
      vertex 52.7984 22.0687 3
      vertex 52.7984 22.0687 5
    endloop
  endfacet
  facet normal -0.85265 -0.522482 0
    outer loop
      vertex 54.6021 44.9878 3
      vertex 52.7984 47.9313 5
      vertex 52.7984 47.9313 3
    endloop
  endfacet
  facet normal -0.85265 -0.522482 0
    outer loop
      vertex 52.7984 47.9313 5
      vertex 54.6021 44.9878 3
      vertex 54.6021 44.9878 5
    endloop
  endfacet
  facet normal -0.760413 -0.64944 0
    outer loop
      vertex 52.7984 47.9313 3
      vertex 50.5564 50.5564 5
      vertex 50.5564 50.5564 3
    endloop
  endfacet
  facet normal -0.760413 -0.64944 0
    outer loop
      vertex 50.5564 50.5564 5
      vertex 52.7984 47.9313 3
      vertex 52.7984 47.9313 5
    endloop
  endfacet
  facet normal -0.233446 -0.97237 0
    outer loop
      vertex 38.4416 56.7291 3
      vertex 41.7984 55.9232 5
      vertex 38.4416 56.7291 5
    endloop
  endfacet
  facet normal -0.233446 -0.97237 -0
    outer loop
      vertex 41.7984 55.9232 5
      vertex 38.4416 56.7291 3
      vertex 41.7984 55.9232 3
    endloop
  endfacet
  facet normal -0.0784707 -0.996916 0
    outer loop
      vertex 35 57 3
      vertex 38.4416 56.7291 5
      vertex 35 57 5
    endloop
  endfacet
  facet normal -0.0784707 -0.996916 -0
    outer loop
      vertex 38.4416 56.7291 5
      vertex 35 57 3
      vertex 38.4416 56.7291 3
    endloop
  endfacet
  facet normal -0.522482 -0.85265 0
    outer loop
      vertex 44.9878 54.6021 3
      vertex 47.9313 52.7984 5
      vertex 44.9878 54.6021 5
    endloop
  endfacet
  facet normal -0.522482 -0.85265 -0
    outer loop
      vertex 47.9313 52.7984 5
      vertex 44.9878 54.6021 3
      vertex 47.9313 52.7984 3
    endloop
  endfacet
  facet normal 0 0 1
    outer loop
      vertex 56.7291 38.4416 3
      vertex 56.7291 31.5584 3
      vertex 57 35 3
    endloop
  endfacet
  facet normal 0 0 1
    outer loop
      vertex 55.9232 41.7984 3
      vertex 56.7291 31.5584 3
      vertex 56.7291 38.4416 3
    endloop
  endfacet
  facet normal 0 0 1
    outer loop
      vertex 55.9232 41.7984 3
      vertex 55.9232 28.2016 3
      vertex 56.7291 31.5584 3
    endloop
  endfacet
  facet normal 0 0 1
    outer loop
      vertex 54.6021 44.9878 3
      vertex 55.9232 28.2016 3
      vertex 55.9232 41.7984 3
    endloop
  endfacet
  facet normal 0 0 1
    outer loop
      vertex 54.6021 44.9878 3
      vertex 54.6021 25.0122 3
      vertex 55.9232 28.2016 3
    endloop
  endfacet
  facet normal 0 0 1
    outer loop
      vertex 52.7984 47.9313 3
      vertex 54.6021 25.0122 3
      vertex 54.6021 44.9878 3
    endloop
  endfacet
  facet normal 0 0 1
    outer loop
      vertex 52.7984 47.9313 3
      vertex 52.7984 22.0687 3
      vertex 54.6021 25.0122 3
    endloop
  endfacet
  facet normal 0 0 1
    outer loop
      vertex 50.5564 50.5564 3
      vertex 52.7984 22.0687 3
      vertex 52.7984 47.9313 3
    endloop
  endfacet
  facet normal 0 0 1
    outer loop
      vertex 50.5564 50.5564 3
      vertex 50.5564 19.4436 3
      vertex 52.7984 22.0687 3
    endloop
  endfacet
  facet normal 0 0 1
    outer loop
      vertex 47.9313 52.7984 3
      vertex 50.5564 19.4436 3
      vertex 50.5564 50.5564 3
    endloop
  endfacet
  facet normal 0 0 1
    outer loop
      vertex 47.9313 52.7984 3
      vertex 47.9313 17.2016 3
      vertex 50.5564 19.4436 3
    endloop
  endfacet
  facet normal 0 0 1
    outer loop
      vertex 44.9878 54.6021 3
      vertex 47.9313 17.2016 3
      vertex 47.9313 52.7984 3
    endloop
  endfacet
  facet normal 0 0 1
    outer loop
      vertex 44.9878 54.6021 3
      vertex 44.9878 15.3979 3
      vertex 47.9313 17.2016 3
    endloop
  endfacet
  facet normal 0 0 1
    outer loop
      vertex 41.7984 55.9232 3
      vertex 44.9878 15.3979 3
      vertex 44.9878 54.6021 3
    endloop
  endfacet
  facet normal 0 0 1
    outer loop
      vertex 41.7984 55.9232 3
      vertex 41.7984 14.0768 3
      vertex 44.9878 15.3979 3
    endloop
  endfacet
  facet normal 0 0 1
    outer loop
      vertex 38.4416 56.7291 3
      vertex 41.7984 14.0768 3
      vertex 41.7984 55.9232 3
    endloop
  endfacet
  facet normal 0 0 1
    outer loop
      vertex 38.4416 56.7291 3
      vertex 38.4416 13.2709 3
      vertex 41.7984 14.0768 3
    endloop
  endfacet
  facet normal 0 0 1
    outer loop
      vertex 35 57 3
      vertex 38.4416 13.2709 3
      vertex 38.4416 56.7291 3
    endloop
  endfacet
  facet normal 0 0 1
    outer loop
      vertex 35 57 3
      vertex 35 13 3
      vertex 38.4416 13.2709 3
    endloop
  endfacet
  facet normal -0 0 1
    outer loop
      vertex 31.5584 56.7291 3
      vertex 35 13 3
      vertex 35 57 3
    endloop
  endfacet
  facet normal 0 0 1
    outer loop
      vertex 31.5584 56.7291 3
      vertex 31.5584 13.2709 3
      vertex 35 13 3
    endloop
  endfacet
  facet normal -0 0 1
    outer loop
      vertex 28.2016 55.9232 3
      vertex 31.5584 13.2709 3
      vertex 31.5584 56.7291 3
    endloop
  endfacet
  facet normal 0 0 1
    outer loop
      vertex 28.2016 55.9232 3
      vertex 28.2016 14.0768 3
      vertex 31.5584 13.2709 3
    endloop
  endfacet
  facet normal -0 0 1
    outer loop
      vertex 25.0122 54.6021 3
      vertex 28.2016 14.0768 3
      vertex 28.2016 55.9232 3
    endloop
  endfacet
  facet normal 0 0 1
    outer loop
      vertex 25.0122 54.6021 3
      vertex 25.0122 15.3979 3
      vertex 28.2016 14.0768 3
    endloop
  endfacet
  facet normal -0 0 1
    outer loop
      vertex 22.0687 52.7984 3
      vertex 25.0122 15.3979 3
      vertex 25.0122 54.6021 3
    endloop
  endfacet
  facet normal 0 0 1
    outer loop
      vertex 22.0687 52.7984 3
      vertex 22.0687 17.2016 3
      vertex 25.0122 15.3979 3
    endloop
  endfacet
  facet normal 0 0 1
    outer loop
      vertex 16.0181 46 3
      vertex 22.0687 52.7984 3
      vertex 19.4436 50.5564 3
    endloop
  endfacet
  facet normal 0 0 1
    outer loop
      vertex 22.0687 52.7984 3
      vertex 16.0181 46 3
      vertex 22.0687 17.2016 3
    endloop
  endfacet
  facet normal 0 0 1
    outer loop
      vertex 16.0181 46 3
      vertex 19.4436 50.5564 3
      vertex 17.2016 47.9313 3
    endloop
  endfacet
  facet normal -0 0 1
    outer loop
      vertex 16.0181 24 3
      vertex 22.0687 17.2016 3
      vertex 16.0181 46 3
    endloop
  endfacet
  facet normal 0 0 1
    outer loop
      vertex 22.0687 17.2016 3
      vertex 16.0181 24 3
      vertex 19.4436 19.4436 3
    endloop
  endfacet
  facet normal 0 0 1
    outer loop
      vertex 19.4436 19.4436 3
      vertex 16.0181 24 3
      vertex 17.2016 22.0687 3
    endloop
  endfacet
  facet normal -0 0 1
    outer loop
      vertex 0 46 3
      vertex 16.0181 24 3
      vertex 16.0181 46 3
    endloop
  endfacet
  facet normal 0 0 1
    outer loop
      vertex 16.0181 24 3
      vertex 0 46 3
      vertex 0 24 3
    endloop
  endfacet
  facet normal 0.852641 -0.522498 0
    outer loop
      vertex 16.0181 46 5
      vertex 17.2016 47.9313 3
      vertex 17.2016 47.9313 5
    endloop
  endfacet
  facet normal 0.852641 -0.522498 0
    outer loop
      vertex 17.2016 47.9313 3
      vertex 16.0181 46 5
      vertex 16.0181 46 3
    endloop
  endfacet
  facet normal 0.64944 -0.760413 0
    outer loop
      vertex 19.4436 50.5564 3
      vertex 22.0687 52.7984 5
      vertex 19.4436 50.5564 5
    endloop
  endfacet
  facet normal 0.64944 -0.760413 0
    outer loop
      vertex 22.0687 52.7984 5
      vertex 19.4436 50.5564 3
      vertex 22.0687 52.7984 3
    endloop
  endfacet
  facet normal 0.382685 -0.923879 0
    outer loop
      vertex 25.0122 54.6021 3
      vertex 28.2016 55.9232 5
      vertex 25.0122 54.6021 5
    endloop
  endfacet
  facet normal 0.382685 -0.923879 0
    outer loop
      vertex 28.2016 55.9232 5
      vertex 25.0122 54.6021 3
      vertex 28.2016 55.9232 3
    endloop
  endfacet
  facet normal -0.64944 0.760413 0
    outer loop
      vertex 50.5564 19.4436 3
      vertex 47.9313 17.2016 5
      vertex 50.5564 19.4436 5
    endloop
  endfacet
  facet normal -0.64944 0.760413 0
    outer loop
      vertex 47.9313 17.2016 5
      vertex 50.5564 19.4436 3
      vertex 47.9313 17.2016 3
    endloop
  endfacet
  facet normal 0.522482 0.85265 -0
    outer loop
      vertex 25.0122 15.3979 3
      vertex 22.0687 17.2016 5
      vertex 25.0122 15.3979 5
    endloop
  endfacet
  facet normal 0.522482 0.85265 0
    outer loop
      vertex 22.0687 17.2016 5
      vertex 25.0122 15.3979 3
      vertex 22.0687 17.2016 3
    endloop
  endfacet
  facet normal 0.0784707 0.996916 -0
    outer loop
      vertex 35 13 3
      vertex 31.5584 13.2709 5
      vertex 35 13 5
    endloop
  endfacet
  facet normal 0.0784707 0.996916 0
    outer loop
      vertex 31.5584 13.2709 5
      vertex 35 13 3
      vertex 31.5584 13.2709 3
    endloop
  endfacet
  facet normal 0.760413 0.64944 0
    outer loop
      vertex 19.4436 19.4436 5
      vertex 17.2016 22.0687 3
      vertex 17.2016 22.0687 5
    endloop
  endfacet
  facet normal 0.760413 0.64944 0
    outer loop
      vertex 17.2016 22.0687 3
      vertex 19.4436 19.4436 5
      vertex 19.4436 19.4436 3
    endloop
  endfacet
  facet normal -0.923879 -0.382685 0
    outer loop
      vertex 55.9232 41.7984 3
      vertex 54.6021 44.9878 5
      vertex 54.6021 44.9878 3
    endloop
  endfacet
  facet normal -0.923879 -0.382685 0
    outer loop
      vertex 54.6021 44.9878 5
      vertex 55.9232 41.7984 3
      vertex 55.9232 41.7984 5
    endloop
  endfacet
  facet normal -0.97237 -0.233446 0
    outer loop
      vertex 56.7291 38.4416 3
      vertex 55.9232 41.7984 5
      vertex 55.9232 41.7984 3
    endloop
  endfacet
  facet normal -0.97237 -0.233446 0
    outer loop
      vertex 55.9232 41.7984 5
      vertex 56.7291 38.4416 3
      vertex 56.7291 38.4416 5
    endloop
  endfacet
  facet normal -0.382685 -0.923879 0
    outer loop
      vertex 41.7984 55.9232 3
      vertex 44.9878 54.6021 5
      vertex 41.7984 55.9232 5
    endloop
  endfacet
  facet normal -0.382685 -0.923879 -0
    outer loop
      vertex 44.9878 54.6021 5
      vertex 41.7984 55.9232 3
      vertex 44.9878 54.6021 3
    endloop
  endfacet
  facet normal 0.233446 -0.97237 0
    outer loop
      vertex 28.2016 55.9232 3
      vertex 31.5584 56.7291 5
      vertex 28.2016 55.9232 5
    endloop
  endfacet
  facet normal 0.233446 -0.97237 0
    outer loop
      vertex 31.5584 56.7291 5
      vertex 28.2016 55.9232 3
      vertex 31.5584 56.7291 3
    endloop
  endfacet
  facet normal -0.233446 0.97237 0
    outer loop
      vertex 41.7984 14.0768 3
      vertex 38.4416 13.2709 5
      vertex 41.7984 14.0768 5
    endloop
  endfacet
  facet normal -0.233446 0.97237 0
    outer loop
      vertex 38.4416 13.2709 5
      vertex 41.7984 14.0768 3
      vertex 38.4416 13.2709 3
    endloop
  endfacet
  facet normal -0.522482 0.85265 0
    outer loop
      vertex 47.9313 17.2016 3
      vertex 44.9878 15.3979 5
      vertex 47.9313 17.2016 5
    endloop
  endfacet
  facet normal -0.522482 0.85265 0
    outer loop
      vertex 44.9878 15.3979 5
      vertex 47.9313 17.2016 3
      vertex 44.9878 15.3979 3
    endloop
  endfacet
  facet normal -0.760413 0.64944 0
    outer loop
      vertex 50.5564 19.4436 3
      vertex 52.7984 22.0687 5
      vertex 52.7984 22.0687 3
    endloop
  endfacet
  facet normal -0.760413 0.64944 0
    outer loop
      vertex 52.7984 22.0687 5
      vertex 50.5564 19.4436 3
      vertex 50.5564 19.4436 5
    endloop
  endfacet
  facet normal -0.996916 0.0784707 0
    outer loop
      vertex 56.7291 31.5584 3
      vertex 57 35 5
      vertex 57 35 3
    endloop
  endfacet
  facet normal -0.996916 0.0784707 0
    outer loop
      vertex 57 35 5
      vertex 56.7291 31.5584 3
      vertex 56.7291 31.5584 5
    endloop
  endfacet
  facet normal 0.382685 0.923879 -0
    outer loop
      vertex 28.2016 14.0768 3
      vertex 25.0122 15.3979 5
      vertex 28.2016 14.0768 5
    endloop
  endfacet
  facet normal 0.382685 0.923879 0
    outer loop
      vertex 25.0122 15.3979 5
      vertex 28.2016 14.0768 3
      vertex 25.0122 15.3979 3
    endloop
  endfacet
  facet normal -0.0784707 0.996916 0
    outer loop
      vertex 38.4416 13.2709 3
      vertex 35 13 5
      vertex 38.4416 13.2709 5
    endloop
  endfacet
  facet normal -0.0784707 0.996916 0
    outer loop
      vertex 35 13 5
      vertex 38.4416 13.2709 3
      vertex 35 13 3
    endloop
  endfacet
  facet normal 0.852641 0.522498 0
    outer loop
      vertex 17.2016 22.0687 5
      vertex 16.0181 24 3
      vertex 16.0181 24 5
    endloop
  endfacet
  facet normal 0.852641 0.522498 0
    outer loop
      vertex 16.0181 24 3
      vertex 17.2016 22.0687 5
      vertex 17.2016 22.0687 3
    endloop
  endfacet
  facet normal -0.382685 0.923879 0
    outer loop
      vertex 44.9878 15.3979 3
      vertex 41.7984 14.0768 5
      vertex 44.9878 15.3979 5
    endloop
  endfacet
  facet normal -0.382685 0.923879 0
    outer loop
      vertex 41.7984 14.0768 5
      vertex 44.9878 15.3979 3
      vertex 41.7984 14.0768 3
    endloop
  endfacet
  facet normal -0.923879 0.382685 0
    outer loop
      vertex 54.6021 25.0122 3
      vertex 55.9232 28.2016 5
      vertex 55.9232 28.2016 3
    endloop
  endfacet
  facet normal -0.923879 0.382685 0
    outer loop
      vertex 55.9232 28.2016 5
      vertex 54.6021 25.0122 3
      vertex 54.6021 25.0122 5
    endloop
  endfacet
  facet normal 0.233446 0.97237 -0
    outer loop
      vertex 31.5584 13.2709 3
      vertex 28.2016 14.0768 5
      vertex 31.5584 13.2709 5
    endloop
  endfacet
  facet normal 0.233446 0.97237 0
    outer loop
      vertex 28.2016 14.0768 5
      vertex 31.5584 13.2709 3
      vertex 28.2016 14.0768 3
    endloop
  endfacet
  facet normal -0.97237 0.233446 0
    outer loop
      vertex 55.9232 28.2016 3
      vertex 56.7291 31.5584 5
      vertex 56.7291 31.5584 3
    endloop
  endfacet
  facet normal -0.97237 0.233446 0
    outer loop
      vertex 56.7291 31.5584 5
      vertex 55.9232 28.2016 3
      vertex 55.9232 28.2016 5
    endloop
  endfacet
  facet normal 0 -1 0
    outer loop
      vertex 0 46 3
      vertex 16.0181 46 5
      vertex 0 46 5
    endloop
  endfacet
  facet normal 0 -1 -0
    outer loop
      vertex 16.0181 46 5
      vertex 0 46 3
      vertex 16.0181 46 3
    endloop
  endfacet
  facet normal 0 1 -0
    outer loop
      vertex 16.0181 24 3
      vertex 0 24 5
      vertex 16.0181 24 5
    endloop
  endfacet
  facet normal 0 1 0
    outer loop
      vertex 0 24 5
      vertex 16.0181 24 3
      vertex 0 24 3
    endloop
  endfacet
endsolid OpenSCAD_Model
